<svg version="1.2" xmlns="http://www.w3.org/2000/svg" viewBox="0 0 1000 1000" width="600" height="600">
	<title>3765609</title>
	<style>
		.s0 { fill: #ebebeb } 
		.s1 { fill: #e0e0e0 } 
		.s2 { fill: #f5f5f5 } 
		.s3 { fill: #ffffff } 
		.s4 { fill: #fafafa } 
		.s5 { fill: #dfdfdf } 
		.s6 { fill: #263238 } 
		.s7 { fill: #ff2929 } 
		.s8 { fill: #e8505b } 
		.s9 { fill: #455a64 } 
		.s10 { fill: #000000 } 
		.s11 { fill: #ffbe9d } 
		.s12 { fill: #eb996e } 
	</style>
	<g id="Background Complete">
		<g id="&lt;Group&gt;">
			<g id="&lt;Group&gt;">
				<g id="&lt;Group&gt;">
					<g id="&lt;Group&gt;">
						<path id="&lt;Path&gt;" class="s0" d="m854.4 491.3c0 0-16.3-1.2-14.8 35.3 1.5 36.4 5.2 55.8 5.2 55.8 0 0-0.5 8.1-6.7 6.5-6.3-1.6-18.1-9.4-23.9-3.5-6 6.1-3.9 15.4 4.1 26.4 8 11 24.7 35.8 26.2 38.1 1.5 2.2 2 6.3-2.4 5.9-4.4-0.4-34.4-10.5-38.3 4-4 14.5 23.3 41.5 26.2 44.5 3 3 3.1 4.9 1.9 6.7-1.1 1.8-10.9-2.5-19.5-5.1-8.7-2.5-19.1-3.9-20.7 4.6-1.6 8.6 10.4 33.6 55.5 60l21.7 10.8 20.5-13.1c42.2-30.7 51.7-56.8 49.3-65.2-2.4-8.3-12.7-5.9-21.1-2.5-8.3 3.4-17.5 8.7-18.9 7-1.4-1.7-1.4-3.6 1.2-6.9 2.6-3.3 27.1-32.9 21.7-46.9-5.4-14-34.2-0.9-38.5-0.1-4.4 0.8-4.2-3.3-3-5.7 1.3-2.4 15.3-28.7 22.2-40.4 6.9-11.8 8.1-21.3 1.4-26.8-6.3-5.2-17.3 3.8-23.3 6-6.1 2.2-7.4-5.8-7.4-5.8 0 0 1.8-19.7-0.4-56.1-2.1-36.4-18.6-33.5-18.6-33.5"/>
					</g>
				</g>
				<g id="&lt;Group&gt;">
					<g id="&lt;Group&gt;">
						<g id="&lt;Group&gt;">
							<path id="&lt;Path&gt;" class="s1" d="m855.6 523.9q0 0 0.1 0.8 0.1 0.8 0.2 2.2c0.1 2 0.3 4.9 0.6 8.6 0.5 7.5 1.1 18.3 1.9 31.7 1.4 26.8 3.2 63.7 5 104.6 1.7 40.8 3.4 77.8 4.7 104.5 0.7 13.4 1.3 24.2 1.6 31.7 0.2 3.7 0.4 6.6 0.5 8.6q0 1.5 0.1 2.3 0 0.7 0 0.7 0 0-0.1-0.7-0.1-0.8-0.2-2.3c-0.1-2-0.3-4.9-0.6-8.6-0.5-7.4-1.1-18.3-1.9-31.6-1.4-26.8-3.2-63.8-5-104.6-1.7-40.8-3.4-77.8-4.7-104.6-0.7-13.3-1.3-24.1-1.6-31.6-0.2-3.7-0.4-6.6-0.5-8.7q0-1.4-0.1-2.2 0-0.8 0-0.8z"/>
						</g>
					</g>
				</g>
				<g id="&lt;Group&gt;">
					<g id="&lt;Group&gt;">
						<g id="&lt;Group&gt;">
							<path id="&lt;Path&gt;" class="s1" d="m830.3 597c0 0 0.5 0.4 1.3 1.1 0.8 0.8 2 1.9 3.4 3.4 2.9 2.8 6.8 6.8 10.9 11.3 4.1 4.5 7.8 8.5 10.6 11.6q1.9 2.1 3.3 3.5c0.7 0.9 1.1 1.3 1.1 1.4-0.1 0-0.5-0.4-1.4-1.1-0.8-0.8-2-1.9-3.4-3.4-2.8-2.8-6.6-6.9-10.8-11.4-4.1-4.4-7.8-8.4-10.7-11.5q-1.9-2.1-3.2-3.5c-0.8-0.9-1.2-1.3-1.1-1.4z"/>
						</g>
					</g>
				</g>
				<g id="&lt;Group&gt;">
					<g id="&lt;Group&gt;">
						<g id="&lt;Group&gt;">
							<path id="&lt;Path&gt;" class="s1" d="m863 628.6c-0.1-0.2 7.8-8.5 17.7-18.6 10-10.1 18.2-18.1 18.4-18 0.1 0.2-7.8 8.5-17.8 18.6-9.9 10.1-18.1 18.1-18.3 18z"/>
						</g>
					</g>
				</g>
				<g id="&lt;Group&gt;">
					<g id="&lt;Group&gt;">
						<g id="&lt;Group&gt;">
							<path id="&lt;Path&gt;" class="s1" d="m862.9 691.4c0-0.1 0.6-0.4 1.6-1q1.7-0.9 4.2-2.4c3.6-2 8.5-4.8 13.8-8 5.4-3.3 10.1-6.4 13.5-8.7q2.4-1.6 4.1-2.7c0.9-0.6 1.5-1 1.5-0.9 0.1 0-0.4 0.4-1.3 1.2-0.9 0.7-2.3 1.7-3.9 2.9-3.4 2.4-8.1 5.6-13.4 8.9-5.4 3.3-10.4 6-14 7.9-1.9 0.9-3.3 1.6-4.4 2.1-1 0.5-1.6 0.7-1.7 0.7z"/>
						</g>
					</g>
				</g>
				<g id="&lt;Group&gt;">
					<g id="&lt;Group&gt;">
						<g id="&lt;Group&gt;">
							<path id="&lt;Path&gt;" class="s1" d="m827 669.4c0.1 0 0.6 0.2 1.5 0.7 1 0.5 2.3 1.3 4 2.2 3.3 1.9 7.8 4.5 12.8 7.5 4.9 2.9 9.4 5.6 12.7 7.7 1.6 1 2.9 1.8 3.8 2.4 0.8 0.6 1.3 0.9 1.3 0.9 0 0.1-0.6-0.2-1.5-0.7-1-0.5-2.3-1.2-3.9-2.1-3.3-1.9-7.9-4.6-12.9-7.5-4.9-3-9.4-5.7-12.6-7.7-1.7-1-3-1.8-3.8-2.4-0.9-0.6-1.4-1-1.4-1z"/>
						</g>
					</g>
				</g>
				<g id="&lt;Group&gt;">
					<g id="&lt;Group&gt;">
						<g id="&lt;Group&gt;">
							<path id="&lt;Path&gt;" class="s1" d="m819.9 724.9c0-0.1 0.7 0.2 1.9 0.9q2 1.1 5.1 2.8c4.2 2.4 10 5.7 16.4 9.4 6.5 3.8 12.3 7.2 16.4 9.7q3 1.8 4.9 3c1.2 0.7 1.8 1.2 1.8 1.2-0.1 0.1-0.7-0.3-1.9-0.9q-2-1.1-5.1-2.8c-4.2-2.4-10.1-5.7-16.5-9.5-6.4-3.7-12.2-7.1-16.3-9.6q-3-1.8-5-3c-1.1-0.8-1.7-1.2-1.7-1.2z"/>
						</g>
					</g>
				</g>
				<g id="&lt;Group&gt;">
					<g id="&lt;Group&gt;">
						<g id="&lt;Group&gt;">
							<path id="&lt;Path&gt;" class="s1" d="m865.4 751c0-0.1 0.7-0.5 1.9-1.3q2.1-1.3 5.3-3.2c4.5-2.7 10.6-6.5 17.2-10.8 6.7-4.4 12.6-8.4 16.9-11.4q3.1-2.2 5.1-3.5c1.2-0.9 1.9-1.3 1.9-1.3 0 0.1-0.6 0.6-1.7 1.5-1.2 0.9-2.9 2.2-5 3.8-4.1 3.1-10 7.2-16.7 11.6-6.7 4.3-12.9 8-17.4 10.6-2.3 1.3-4.1 2.3-5.4 3-1.3 0.6-2 1-2.1 1z"/>
						</g>
					</g>
				</g>
			</g>
			<g id="&lt;Group&gt;">
				<g id="&lt;Group&gt;">
					<g id="&lt;Group&gt;">
						<g id="&lt;Group&gt;">
							<path id="&lt;Path&gt;" class="s1" d="m898 788.4h-60l19.6 148.2h20.9z"/>
						</g>
					</g>
				</g>
				<g id="&lt;Group&gt;">
					<g id="&lt;Group&gt;">
						<g id="&lt;Group&gt;">
							<g id="&lt;Group&gt;">
								<path id="&lt;Path&gt;" class="s2" d="m841.2 806.6c-0.1 0 0 0.2 0.3 0.5 0.2 0.3 0.7 0.7 1.4 1.1 1.5 0.6 3.9 0.6 6.4-0.8 2.4-1.4 4.5-4 7.7-5.1 3.3-1.3 7.3-1 11.1 0.2 3.8 1.2 7.2 3.1 10.2 5 3.1 1.8 5.9 3.4 8.4 4.4 2.5 1.1 4.7 1.6 6.2 1.8q1.1 0.2 1.7 0.1 0.6 0 0.6 0c0-0.2-3.4-0.2-8.2-2.5-2.4-1.1-5.2-2.8-8.2-4.6-3-1.9-6.4-3.9-10.4-5.2-4-1.2-8.2-1.5-11.7-0.1-1.7 0.7-3.2 1.7-4.4 2.7-1.2 1-2.3 2-3.4 2.7-2.2 1.4-4.5 1.5-5.8 1-1.4-0.5-1.9-1.3-1.9-1.2z"/>
							</g>
						</g>
					</g>
				</g>
				<g id="&lt;Group&gt;">
					<g id="&lt;Group&gt;">
						<g id="&lt;Group&gt;">
							<g id="&lt;Group&gt;">
								<path id="&lt;Path&gt;" class="s2" d="m843.3 833.9c0.1 0 0.5-0.6 1.5-1.6 0.9-0.9 2.5-2.2 4.8-3 2.2-0.9 5.1-1.4 8.3-1.3 3.2 0.1 6.7 0.8 10.4 1.4 3.8 0.7 7.4 0.9 10.7 0.5 3.3-0.4 6.2-1.4 8.4-2.4 2.3-1.1 4-2.2 5.1-3 1.1-0.9 1.6-1.4 1.6-1.5-0.1-0.1-2.4 1.9-6.9 3.8-2.3 1-5.1 1.8-8.3 2.2-3.2 0.4-6.7 0.1-10.4-0.5-3.7-0.6-7.3-1.3-10.6-1.4-3.3-0.1-6.3 0.5-8.6 1.5-2.3 1-3.9 2.4-4.8 3.4q-0.7 0.9-0.9 1.4-0.3 0.5-0.3 0.5z"/>
							</g>
						</g>
					</g>
				</g>
				<g id="&lt;Group&gt;">
					<g id="&lt;Group&gt;">
						<g id="&lt;Group&gt;">
							<g id="&lt;Group&gt;">
								<path id="&lt;Path&gt;" class="s2" d="m891.2 848.5c0.1 0-0.5-0.4-1.6-0.8-1.1-0.5-2.8-0.9-5-1.1-2.1-0.2-4.7 0-7.5 0.4-2.8 0.5-5.8 1.2-8.9 1.9-3.2 0.7-6.2 1.1-9 1-2.7-0.1-5.2-0.7-7.1-1.5-3.8-1.7-5.2-4.2-5.4-4 0 0 0.3 0.6 1.1 1.5 0.7 1 2.1 2.1 4 3.1 2 1 4.5 1.7 7.4 1.8 2.8 0.2 6-0.3 9.2-0.9 3.1-0.7 6.1-1.5 8.9-2 2.7-0.5 5.2-0.7 7.3-0.6 4.2 0.1 6.6 1.4 6.6 1.2z"/>
							</g>
						</g>
					</g>
				</g>
				<g id="&lt;Group&gt;">
					<g id="&lt;Group&gt;">
						<g id="&lt;Group&gt;">
							<g id="&lt;Group&gt;">
								<path id="&lt;Path&gt;" class="s2" d="m848.6 869.1c0.1 0.1 2.2-1.4 5.9-0.6 1.8 0.3 3.8 1.2 6.1 2.2 2.2 1.1 5 2 7.9 2.2 5.9 0.6 11.1-1.3 14.3-3.3 1.7-1 2.8-2 3.6-2.7 0.7-0.8 1.1-1.3 1.1-1.3-0.2-0.2-1.7 1.6-5 3.4-3.2 1.8-8.3 3.5-13.9 3-5.7-0.4-10.1-3.8-14-4.2-1.9-0.3-3.5 0-4.5 0.4-1.1 0.4-1.5 0.8-1.5 0.9z"/>
							</g>
						</g>
					</g>
				</g>
				<g id="&lt;Group&gt;">
					<g id="&lt;Group&gt;">
						<g id="&lt;Group&gt;">
							<g id="&lt;Group&gt;">
								<path id="&lt;Path&gt;" class="s2" d="m852 897.5c0 0.1 2 0.1 5-1 3-1 6.7-3.3 11.1-5 2.2-0.9 4.4-1.4 6.4-1.4 2 0 3.8 0.5 5.1 1.2 2.8 1.4 3.6 3.3 3.7 3.2 0.1 0-0.1-0.5-0.6-1.3-0.4-0.7-1.4-1.7-2.8-2.5-1.4-0.8-3.3-1.4-5.4-1.5-2.2 0-4.5 0.5-6.7 1.4-4.6 1.8-8.2 4.1-11.1 5.3-2.8 1.2-4.7 1.5-4.7 1.6z"/>
							</g>
						</g>
					</g>
				</g>
				<g id="&lt;Group&gt;">
					<g id="&lt;Group&gt;">
						<g id="&lt;Group&gt;">
							<g id="&lt;Group&gt;">
								<path id="&lt;Path&gt;" class="s2" d="m854.9 910.8c0 0.1 1.4 0.6 3.8 1.2 2.4 0.6 5.8 1.2 9.5 1.6 3.8 0.4 7.2 0.4 9.7 0.3 2.4-0.2 3.9-0.4 3.9-0.5 0-0.3-6.1 0-13.5-0.8-7.4-0.7-13.3-2.1-13.4-1.8z"/>
							</g>
						</g>
					</g>
				</g>
			</g>
		</g>
		<g id="&lt;Group&gt;">
			<g id="&lt;Group&gt;">
				<g id="&lt;Group&gt;">
					<g id="&lt;Group&gt;">
						<path id="&lt;Path&gt;" class="s1" d="m923.3 68.5v159.4h-205.9l-7.4-158.3z"/>
					</g>
				</g>
				<g id="&lt;Group&gt;">
					<g id="&lt;Group&gt;">
						<path id="&lt;Path&gt;" class="s3" d="m915.9 69.4v158.5h-205.9v-158.5z"/>
					</g>
					<g id="&lt;Group&gt;">
						<path id="&lt;Compound Path&gt;" fill-rule="evenodd" class="s1" d="m916.7 228.7h-207.5v-160h207.5zm-205.9-1.6h204.3v-156.9h-204.3z"/>
					</g>
				</g>
				<g id="&lt;Group&gt;">
					<g id="&lt;Group&gt;">
						<g id="&lt;Group&gt;">
							<path id="&lt;Path&gt;" class="s3" d="m893.6 85.7v121.4h-161.3v-121.4z"/>
						</g>
					</g>
					<g id="&lt;Group&gt;">
						<g id="&lt;Group&gt;">
							<g id="&lt;Group&gt;">
								<path id="&lt;Path&gt;" class="s1" d="m893.6 85.7q0 0-0.8 0.1-0.8 0-2.3 0-3 0-8.7 0c-7.7 0-18.9 0.1-33.1 0.1-28.4 0.1-68.6 0.1-116.4 0.2l0.4-0.4c0 36.4 0 77.7 0 121.3v0.1l-0.4-0.5c60.1 0.1 115.8 0.1 161.3 0.1l-0.3 0.4c0-36.7 0.1-67 0.1-88.1 0.1-10.6 0.1-18.9 0.1-24.6q0-4.2 0.1-6.4c0-1.5 0-2.3 0-2.3q0 0 0 2.2 0 2.2 0.1 6.4c0 5.6 0 13.9 0.1 24.5 0 21.1 0.1 51.5 0.1 88.3v0.3h-0.3c-45.5 0-101.2 0-161.3 0.1h-0.4v-0.4-0.1c0-43.6 0-84.9 0.1-121.3v-0.3h0.3c47.9 0 88.2 0.1 116.6 0.1 14.2 0.1 25.4 0.1 33 0.1q5.7 0.1 8.7 0.1 1.5 0 2.3 0 0.7 0 0.7 0z"/>
							</g>
						</g>
					</g>
				</g>
				<g id="&lt;Group&gt;">
					<g id="&lt;Group&gt;">
						<g id="&lt;Group&gt;">
							<path id="&lt;Path&gt;" class="s1" d="m710 69.1c0.1-0.1 1.4 0.7 3.5 2.1 2.1 1.4 5 3.4 8 5.7 3.1 2.3 5.9 4.5 7.8 6.1 1.9 1.6 3.1 2.6 3 2.7-0.1 0.1-1.3-0.8-3.3-2.3-2.3-1.6-5-3.6-7.9-5.8-3-2.2-5.7-4.2-7.9-5.9-2-1.5-3.2-2.5-3.2-2.6z"/>
						</g>
					</g>
				</g>
				<g id="&lt;Group&gt;">
					<g id="&lt;Group&gt;">
						<g id="&lt;Group&gt;">
							<path id="&lt;Path&gt;" class="s1" d="m915.9 69.4c0.1 0.2-4.8 4-10.9 8.5-6.2 4.5-11.3 8-11.4 7.8-0.1-0.1 4.7-3.9 10.9-8.4 6.2-4.5 11.3-8 11.4-7.9z"/>
						</g>
					</g>
				</g>
				<g id="&lt;Group&gt;">
					<g id="&lt;Group&gt;">
						<g id="&lt;Group&gt;">
							<path id="&lt;Path&gt;" class="s3" d="m915.9 227.9l-23.1-20.8"/>
						</g>
					</g>
					<g id="&lt;Group&gt;">
						<g id="&lt;Group&gt;">
							<g id="&lt;Group&gt;">
								<path id="&lt;Path&gt;" class="s1" d="m892.8 207.1c0.1-0.2 5.4 4.3 11.8 10.1 6.4 5.7 11.4 10.5 11.3 10.7-0.2 0.2-5.5-4.3-11.8-10.1-6.4-5.8-11.5-10.6-11.3-10.7z"/>
							</g>
						</g>
					</g>
				</g>
				<g id="&lt;Group&gt;">
					<g id="&lt;Group&gt;">
						<g id="&lt;Group&gt;">
							<path id="&lt;Path&gt;" class="s1" d="m710 227.9c-0.1-0.2 4.7-4.7 10.8-10.2 6.1-5.5 11.1-9.9 11.3-9.7 0.1 0.2-4.7 4.8-10.8 10.3-6.1 5.5-11.1 9.8-11.3 9.6z"/>
						</g>
					</g>
				</g>
			</g>
			<g id="&lt;Group&gt;">
				<g id="&lt;Group&gt;">
					<g id="&lt;Group&gt;">
						<g id="&lt;Group&gt;">
							<g id="&lt;Group&gt;">
								<path id="&lt;Path&gt;" class="s2" d="m851.9 145.3c-2.3 10.5-12.6 17.2-23.1 15-10.5-2.2-17.3-12.6-15-23.1 2.2-10.5 12.6-17.2 23.1-15 10.5 2.2 17.2 12.6 15 23.1z"/>
							</g>
						</g>
					</g>
					<g id="&lt;Group&gt;">
						<g id="&lt;Group&gt;">
							<g id="&lt;Group&gt;">
								<g id="&lt;Group&gt;">
									<path id="&lt;Path&gt;" class="s1" d="m826.5 159.7c-0.2-0.1 0.6-2.1 1.7-5.3 1-3.3 2.3-8 1.8-13.1-0.6-5.1-3.2-9.3-5.7-11.5-2.5-2.3-4.7-2.7-4.6-3-0.1-0.1 2.3-0.1 5.3 2.2 2.9 2.1 5.9 6.5 6.5 12.1 0.5 5.5-1 10.4-2.3 13.6-1.4 3.3-2.5 5.1-2.7 5z"/>
								</g>
							</g>
						</g>
					</g>
					<g id="&lt;Group&gt;">
						<g id="&lt;Group&gt;">
							<g id="&lt;Group&gt;">
								<g id="&lt;Group&gt;">
									<path id="&lt;Path&gt;" class="s1" d="m851.6 138.9c-0.1 0.4-5.2-1.4-11.3 0.4-6.1 1.7-9.4 6.1-9.7 5.8-0.2-0.1 0.4-1.4 2-2.9 1.5-1.6 4-3.4 7.3-4.4 3.2-0.9 6.4-0.8 8.5-0.3 2.1 0.5 3.3 1.2 3.2 1.4z"/>
								</g>
							</g>
						</g>
					</g>
					<g id="&lt;Group&gt;">
						<g id="&lt;Group&gt;">
							<g id="&lt;Group&gt;">
								<g id="&lt;Group&gt;">
									<path id="&lt;Path&gt;" class="s1" d="m842.8 137.9c-0.2 0-0.1-1.4-0.8-3.3-0.7-1.8-2.3-4.3-5.1-5.4-2.9-1.1-5.8-0.4-7.5 0.5-1.8 0.9-2.7 2-2.9 1.8-0.1 0 0.4-1.4 2.3-2.7 1.8-1.3 5.2-2.4 8.6-1.1 3.4 1.4 5.2 4.5 5.6 6.6 0.5 2.3 0 3.6-0.2 3.6z"/>
								</g>
							</g>
						</g>
					</g>
					<g id="&lt;Group&gt;">
						<g id="&lt;Group&gt;">
							<g id="&lt;Group&gt;">
								<g id="&lt;Group&gt;">
									<path id="&lt;Path&gt;" class="s1" d="m836.6 140c-0.4-0.1-0.1-2.8-0.9-5.9-0.7-3.1-2.2-5.4-1.8-5.7 0.2-0.2 2.5 1.8 3.3 5.3 0.9 3.5-0.2 6.4-0.6 6.3z"/>
								</g>
							</g>
						</g>
					</g>
					<g id="&lt;Group&gt;">
						<g id="&lt;Group&gt;">
							<g id="&lt;Group&gt;">
								<g id="&lt;Group&gt;">
									<path id="&lt;Path&gt;" class="s1" d="m836.5 133.9c-0.1 0.4-1.7 0.5-3.3 1.3-1.7 0.9-3 2-3.3 1.7-0.3-0.2 0.5-1.9 2.6-3 2.1-1.1 4-0.4 4 0z"/>
								</g>
							</g>
						</g>
					</g>
				</g>
				<g id="&lt;Group&gt;">
					<g id="&lt;Group&gt;">
						<g id="&lt;Group&gt;">
							<g id="&lt;Group&gt;">
								<path id="&lt;Path&gt;" class="s2" d="m805.3 143c6.3 5.2 7.1 14.5 1.8 20.8-5.2 6.2-14.5 7-20.8 1.8-6.2-5.3-7-14.6-1.8-20.8 5.3-6.3 14.6-7.1 20.8-1.8z"/>
							</g>
						</g>
					</g>
					<g id="&lt;Group&gt;">
						<g id="&lt;Group&gt;">
							<g id="&lt;Group&gt;">
								<g id="&lt;Group&gt;">
									<path id="&lt;Path&gt;" class="s1" d="m805.9 165.1c-0.1 0.1-1.2-1.2-3-3-1.8-1.9-4.5-4.4-8.1-5.9-3.6-1.5-7.4-1.2-9.7-0.3-2.4 0.9-3.5 2.2-3.7 2-0.1 0 0.9-1.6 3.4-2.7 2.4-1.2 6.5-1.7 10.4-0.1 3.9 1.6 6.6 4.4 8.3 6.4 1.7 2.1 2.5 3.5 2.4 3.6z"/>
								</g>
							</g>
						</g>
					</g>
					<g id="&lt;Group&gt;">
						<g id="&lt;Group&gt;">
							<g id="&lt;Group&gt;">
								<g id="&lt;Group&gt;">
									<path id="&lt;Path&gt;" class="s1" d="m800.9 140.9c0.3 0.2-2.8 3-3.7 7.7-1 4.7 0.7 8.5 0.4 8.6-0.2 0-0.8-0.8-1.3-2.4-0.5-1.6-0.8-3.9-0.3-6.5 0.6-2.5 1.8-4.5 2.9-5.8 1.1-1.2 1.9-1.7 2-1.6z"/>
								</g>
							</g>
						</g>
					</g>
					<g id="&lt;Group&gt;">
						<g id="&lt;Group&gt;">
							<g id="&lt;Group&gt;">
								<g id="&lt;Group&gt;">
									<path id="&lt;Path&gt;" class="s1" d="m797.1 146.4c-0.1 0.1-0.9-0.4-2.4-0.6-1.5-0.2-3.8 0-5.5 1.5-1.8 1.5-2.4 3.7-2.4 5.2 0 1.5 0.4 2.5 0.3 2.5-0.1 0.1-0.9-0.7-1.1-2.5-0.2-1.6 0.3-4.3 2.4-6.1 2.1-1.8 4.8-1.9 6.4-1.4 1.7 0.5 2.4 1.3 2.3 1.4z"/>
								</g>
							</g>
						</g>
					</g>
					<g id="&lt;Group&gt;">
						<g id="&lt;Group&gt;">
							<g id="&lt;Group&gt;">
								<g id="&lt;Group&gt;">
									<path id="&lt;Path&gt;" class="s1" d="m796.3 151.3c-0.2 0.2-1.9-0.9-4.2-1.5-2.4-0.6-4.4-0.5-4.5-0.8-0.1-0.3 2.1-1 4.7-0.3 2.7 0.6 4.2 2.4 4 2.6z"/>
								</g>
							</g>
						</g>
					</g>
					<g id="&lt;Group&gt;">
						<g id="&lt;Group&gt;">
							<g id="&lt;Group&gt;">
								<g id="&lt;Group&gt;">
									<path id="&lt;Path&gt;" class="s1" d="m792.2 149.2c0.3 0.2-0.3 1.3-0.3 2.7 0 1.4 0.3 2.7-0.1 2.8-0.2 0.1-1-1-1-2.8 0-1.8 1.1-2.9 1.4-2.7z"/>
								</g>
							</g>
						</g>
					</g>
				</g>
				<g id="&lt;Group&gt;">
					<g id="&lt;Group&gt;">
						<path id="&lt;Path&gt;" class="s0" d="m805.9 137.9c-5.2-3.4-8.4-9.5-10.5-15.3-2-5.9-2.1-12.5-0.2-18.4 5.8 2.6 10.4 7.5 12.6 13.4 2.1 5.9 0.9 14.6-1.9 20.3z"/>
					</g>
				</g>
				<g id="&lt;Group&gt;">
					<g id="&lt;Group&gt;">
						<g id="&lt;Group&gt;">
							<path id="&lt;Path&gt;" class="s3" d="m799.9 113.8q3.4 11.5 5.6 23.2"/>
						</g>
					</g>
					<g id="&lt;Group&gt;">
						<g id="&lt;Group&gt;">
							<g id="&lt;Group&gt;">
								<path id="&lt;Path&gt;" class="s1" d="m805.5 137c-0.1 0.1-0.5-1.2-1-3.3q-0.8-3.7-1.9-8.2-1.1-4.6-2-8.2c-0.5-2.1-0.8-3.4-0.7-3.5 0.1 0 0.6 1.3 1.2 3.3 0.7 2.1 1.5 4.9 2.3 8.2 0.8 3.2 1.4 6.1 1.7 8.2 0.4 2.2 0.5 3.5 0.4 3.5z"/>
							</g>
						</g>
					</g>
				</g>
				<g id="&lt;Group&gt;">
					<g id="&lt;Group&gt;">
						<path id="&lt;Path&gt;" class="s0" d="m819.2 164.4c6.1-1.3 12.6 0.7 18.2 3.4 5.7 2.7 10.4 7.3 13.2 12.8-5.9 2.3-12.7 2.1-18.4-0.6-5.7-2.6-10.9-9.7-13-15.6z"/>
					</g>
				</g>
				<g id="&lt;Group&gt;">
					<g id="&lt;Group&gt;">
						<g id="&lt;Group&gt;">
							<path id="&lt;Path&gt;" class="s3" d="m840.5 177.1q-10.6-5.6-20.4-12.4"/>
						</g>
					</g>
					<g id="&lt;Group&gt;">
						<g id="&lt;Group&gt;">
							<g id="&lt;Group&gt;">
								<path id="&lt;Path&gt;" class="s1" d="m820.1 164.7c0.1-0.1 1.2 0.6 3.1 1.7q3.1 2 7.1 4.4 4 2.5 7.2 4.4c1.9 1.1 3 1.8 3 1.9-0.1 0.1-1.3-0.4-3.2-1.4-2-1-4.6-2.4-7.4-4.2-2.8-1.7-5.3-3.4-7.1-4.6-1.7-1.3-2.8-2.1-2.7-2.2z"/>
							</g>
						</g>
					</g>
				</g>
				<g id="&lt;Group&gt;">
					<g id="&lt;Group&gt;">
						<path id="&lt;Path&gt;" class="s0" d="m813.3 167.3c1.1 3.6 0.3 7.6-1 11.1-1.3 3.5-3.7 6.5-6.9 8.5-1.7-3.3-1.9-7.4-0.7-10.9 1.3-3.6 5.1-7.1 8.6-8.7z"/>
					</g>
				</g>
				<g id="&lt;Group&gt;">
					<g id="&lt;Group&gt;">
						<g id="&lt;Group&gt;">
							<path id="&lt;Path&gt;" class="s3" d="m806.9 180.7q2.8-6.6 6.2-12.8"/>
						</g>
					</g>
					<g id="&lt;Group&gt;">
						<g id="&lt;Group&gt;">
							<g id="&lt;Group&gt;">
								<path id="&lt;Path&gt;" class="s1" d="m813.1 167.9c0.2 0.1-1.2 2.9-2.9 6.5-1.7 3.5-3.1 6.4-3.3 6.3-0.2-0.1 0.9-3.1 2.6-6.7 1.7-3.5 3.4-6.2 3.6-6.1z"/>
							</g>
						</g>
					</g>
				</g>
			</g>
		</g>
		<g id="&lt;Group&gt;">
			<g id="&lt;Group&gt;">
				<g id="&lt;Group&gt;">
					<path id="&lt;Path&gt;" class="s1" d="m406.9 915.6h-221.7v-419.1h221.7z"/>
				</g>
			</g>
			<g id="&lt;Group&gt;">
				<g id="&lt;Group&gt;">
					<path id="&lt;Path&gt;" class="s2" d="m341.1 915.6h-221.7v-419.1h221.7z"/>
				</g>
			</g>
			<g id="&lt;Group&gt;">
				<g id="&lt;Group&gt;">
					<g id="&lt;Group&gt;">
						<path id="&lt;Compound Path&gt;" fill-rule="evenodd" class="s1" d="m324.8 582.8h-190.3v-66.5h190.3zm-188-2.3h185.6v-61.8h-185.6z"/>
					</g>
				</g>
				<g id="&lt;Group&gt;">
					<g id="&lt;Group&gt;">
						<path id="&lt;Path&gt;" class="s0" d="m257.1 530.7h-52.4c-5.5 0-9.9-4.4-9.9-9.9v-3.3h72.2v3.3c0 5.5-4.4 9.9-9.9 9.9z"/>
					</g>
				</g>
			</g>
			<g id="&lt;Group&gt;">
				<g id="&lt;Group&gt;">
					<g id="&lt;Group&gt;">
						<path id="&lt;Compound Path&gt;" fill-rule="evenodd" class="s1" d="m324.8 667.2h-190.3v-66.5h190.3zm-188-2.3h185.6v-61.8h-185.6z"/>
					</g>
				</g>
				<g id="&lt;Group&gt;">
					<g id="&lt;Group&gt;">
						<path id="&lt;Path&gt;" class="s0" d="m257.1 615.1h-52.4c-5.5 0-9.9-4.4-9.9-9.9v-3.3h72.2v3.3c0 5.5-4.4 9.9-9.9 9.9z"/>
					</g>
				</g>
			</g>
			<g id="&lt;Group&gt;">
				<g id="&lt;Group&gt;">
					<g id="&lt;Group&gt;">
						<path id="&lt;Compound Path&gt;" fill-rule="evenodd" class="s1" d="m324.8 751.6h-190.3v-66.5h190.3zm-188-2.3h185.6v-61.8h-185.6z"/>
					</g>
				</g>
				<g id="&lt;Group&gt;">
					<g id="&lt;Group&gt;">
						<path id="&lt;Path&gt;" class="s0" d="m257.1 699.5h-52.4c-5.5 0-9.9-4.4-9.9-9.9v-3.3h72.2v3.3c0 5.5-4.4 9.9-9.9 9.9z"/>
					</g>
				</g>
			</g>
			<g id="&lt;Group&gt;">
				<g id="&lt;Group&gt;">
					<g id="&lt;Group&gt;">
						<path id="&lt;Compound Path&gt;" fill-rule="evenodd" class="s1" d="m324.8 836h-190.3v-66.5h190.3zm-188-2.3h185.6v-61.8h-185.6z"/>
					</g>
				</g>
				<g id="&lt;Group&gt;">
					<g id="&lt;Group&gt;">
						<path id="&lt;Path&gt;" class="s0" d="m257.1 783.9h-52.4c-5.5 0-9.9-4.4-9.9-9.9v-3.3h72.2v3.3c0 5.5-4.4 9.9-9.9 9.9z"/>
					</g>
				</g>
			</g>
			<g id="&lt;Group&gt;">
				<g id="&lt;Group&gt;">
					<path id="&lt;Path&gt;" class="s0" d="m350.4 501.7h-240.9v-20.9h240.9z"/>
				</g>
			</g>
			<g id="&lt;Group&gt;">
				<g id="&lt;Group&gt;">
					<path id="&lt;Path&gt;" class="s1" d="m422.8 501.7h-72.4v-20.9h72.4z"/>
				</g>
			</g>
			<g id="&lt;Group&gt;">
				<g id="&lt;Group&gt;">
					<path id="&lt;Path&gt;" class="s1" d="m131 937.1h-11.6v-21.5h11.6z"/>
				</g>
			</g>
			<g id="&lt;Group&gt;">
				<g id="&lt;Group&gt;">
					<path id="&lt;Path&gt;" class="s1" d="m203 937.1h-11.6v-21.5h11.6z"/>
				</g>
			</g>
			<g id="&lt;Group&gt;">
				<g id="&lt;Group&gt;">
					<path id="&lt;Path&gt;" class="s1" d="m334.5 937.1h-11.6v-21.5h11.6z"/>
				</g>
			</g>
			<g id="&lt;Group&gt;">
				<g id="&lt;Group&gt;">
					<path id="&lt;Path&gt;" class="s1" d="m400.3 937.1h-11.7v-21.5h11.7z"/>
				</g>
			</g>
		</g>
		<g id="&lt;Group&gt;">
			<g id="&lt;Group&gt;">
				<path id="&lt;Path&gt;" class="s1" d="m286.7 425.4l22.5 58.9-14-0.1-11.1-36.2z"/>
			</g>
			<g id="&lt;Group&gt;">
				<g id="&lt;Group&gt;">
					<g id="&lt;Group&gt;">
						<path id="&lt;Path&gt;" class="s0" d="m210.1 371l-7.7 112.8 79.6 1.7 9-114.5z"/>
					</g>
					<g id="&lt;Group&gt;">
						<path id="&lt;Path&gt;" class="s4" d="m218.1 380.1l-6.4 93.9 59.2 2.9 8.2-97.4z"/>
					</g>
				</g>
				<g id="&lt;Group&gt;">
					<path id="&lt;Path&gt;" class="s1" d="m231.1 393.4l-4.8 66h32.6l5.8-66z"/>
				</g>
			</g>
		</g>
		<g id="&lt;Group&gt;">
			<g id="&lt;Group&gt;">
				<g id="&lt;Group&gt;">
					<path id="&lt;Path&gt;" class="s1" d="m282.5 331.2h-166v-274.9h166z"/>
				</g>
			</g>
			<g id="&lt;Group&gt;">
				<g id="&lt;Group&gt;">
					<path id="&lt;Path&gt;" class="s0" d="m277 331.2h-166v-274.9h166z"/>
				</g>
			</g>
			<g id="&lt;Group&gt;">
				<g id="&lt;Group&gt;">
					<path id="&lt;Path&gt;" class="s4" d="m270 325.6h-152v-263.7h152z"/>
				</g>
			</g>
			<g id="&lt;Group&gt;">
				<g id="&lt;Group&gt;">
					<g id="&lt;Group&gt;">
						<path id="&lt;Path&gt;" class="s0" d="m240.4 291.3h-93.4v-195.2h93.4z"/>
					</g>
				</g>
				<g id="&lt;Group&gt;">
					<g id="&lt;Group&gt;">
						<path id="&lt;Path&gt;" class="s5" d="m147 222.3c-0.3-18.3 16.1-36.1 34.2-38.6 8.6-1.2 17.7 0.5 25.8-2.8 14.4-5.9 18.9-25 33.4-30.7l0.6 141.1h-94z"/>
					</g>
				</g>
			</g>
		</g>
		<g id="&lt;Group&gt;">
			<g id="&lt;Group&gt;">
				<g id="&lt;Group&gt;">
					<g id="&lt;Group&gt;">
						<g id="&lt;Group&gt;">
							<g id="&lt;Group&gt;">
								<g id="&lt;Group&gt;">
									<g id="&lt;Group&gt;">
										<path id="&lt;Path&gt;" class="s2" d="m501.4 882.5v55.3h81 89.2v-55.3z"/>
									</g>
								</g>
							</g>
						</g>
					</g>
				</g>
				<g id="&lt;Group&gt;">
					<g id="&lt;Group&gt;">
						<g id="&lt;Group&gt;">
							<g id="&lt;Group&gt;">
								<g id="&lt;Group&gt;">
									<g id="&lt;Group&gt;">
										<path id="&lt;Path&gt;" class="s1" d="m494.3 867v15.5h183.2v-15.5h-95.1z"/>
									</g>
								</g>
							</g>
						</g>
					</g>
				</g>
				<g id="&lt;Group&gt;">
					<g id="&lt;Group&gt;">
						<g id="&lt;Group&gt;">
							<g id="&lt;Group&gt;">
								<g id="&lt;Group&gt;">
									<g id="&lt;Group&gt;">
										<path id="&lt;Path&gt;" class="s1" d="m585.9 937.8h85.7v-55.3h5.9v-15.5h-95.1v14.1z"/>
									</g>
								</g>
							</g>
						</g>
					</g>
				</g>
				<g id="&lt;Group&gt;">
					<g id="&lt;Group&gt;">
						<g id="&lt;Group&gt;">
							<g id="&lt;Group&gt;">
								<g id="&lt;Group&gt;">
									<g id="&lt;Group&gt;">
										<path id="&lt;Path&gt;" class="s1" d="m525.2 891.4v8.3h34.5v-8.3z"/>
									</g>
								</g>
							</g>
						</g>
					</g>
				</g>
				<g id="&lt;Group&gt;">
					<g id="&lt;Group&gt;">
						<g id="&lt;Group&gt;">
							<g id="&lt;Group&gt;">
								<g id="&lt;Group&gt;">
									<g id="&lt;Group&gt;">
										<path id="&lt;Path&gt;" class="s3" d="m565.1 927.7h-44.3v-17.5h44.3z"/>
									</g>
								</g>
							</g>
						</g>
					</g>
				</g>
			</g>
		</g>
		<g id="&lt;Group&gt;">
			<g id="&lt;Group&gt;">
				<g id="&lt;Group&gt;">
					<g id="&lt;Group&gt;">
						<g id="&lt;Group&gt;">
							<g id="&lt;Group&gt;">
								<g id="&lt;Group&gt;">
									<g id="&lt;Group&gt;">
										<path id="&lt;Path&gt;" class="s2" d="m527.6 811.8v55.3h80.9 89.3v-55.3z"/>
									</g>
								</g>
							</g>
						</g>
					</g>
				</g>
				<g id="&lt;Group&gt;">
					<g id="&lt;Group&gt;">
						<g id="&lt;Group&gt;">
							<g id="&lt;Group&gt;">
								<g id="&lt;Group&gt;">
									<g id="&lt;Group&gt;">
										<path id="&lt;Path&gt;" class="s1" d="m520.5 796.3v15.5h183.2v-15.5h-95.2z"/>
									</g>
								</g>
							</g>
						</g>
					</g>
				</g>
				<g id="&lt;Group&gt;">
					<g id="&lt;Group&gt;">
						<g id="&lt;Group&gt;">
							<g id="&lt;Group&gt;">
								<g id="&lt;Group&gt;">
									<g id="&lt;Group&gt;">
										<path id="&lt;Path&gt;" class="s1" d="m612.1 867.1h85.7v-55.3h5.9v-15.5h-95.2v14z"/>
									</g>
								</g>
							</g>
						</g>
					</g>
				</g>
				<g id="&lt;Group&gt;">
					<g id="&lt;Group&gt;">
						<g id="&lt;Group&gt;">
							<g id="&lt;Group&gt;">
								<g id="&lt;Group&gt;">
									<g id="&lt;Group&gt;">
										<path id="&lt;Path&gt;" class="s1" d="m551.4 820.7v8.3h34.5v-8.3z"/>
									</g>
								</g>
							</g>
						</g>
					</g>
				</g>
				<g id="&lt;Group&gt;">
					<g id="&lt;Group&gt;">
						<g id="&lt;Group&gt;">
							<g id="&lt;Group&gt;">
								<g id="&lt;Group&gt;">
									<g id="&lt;Group&gt;">
										<path id="&lt;Path&gt;" class="s3" d="m591.3 857h-44.3v-17.6h44.3z"/>
									</g>
								</g>
							</g>
						</g>
					</g>
				</g>
			</g>
		</g>
	</g>
	<g id="Floor">
		<g id="&lt;Group&gt;">
			<g id="&lt;Group&gt;">
				<path id="&lt;Path&gt;" class="s6" d="m929.8 937.1c0 0.3-195.4 0.5-436.2 0.5-241 0-436.3-0.2-436.3-0.5 0-0.3 195.3-0.6 436.3-0.6 240.8 0 436.2 0.3 436.2 0.6z"/>
			</g>
		</g>
	</g>
	<g id="Screen">
		<g id="&lt;Group&gt;">
			<g id="&lt;Group&gt;">
				<g id="&lt;Group&gt;">
					<g id="&lt;Group&gt;">
						<g id="&lt;Group&gt;">
							<g id="&lt;Group&gt;">
								<g id="&lt;Group&gt;">
									<g id="&lt;Group&gt;">
										<g id="&lt;Group&gt;">
											<g id="&lt;Group&gt;">
												<g id="&lt;Group&gt;">
													<g id="&lt;Group&gt;">
														<path id="&lt;Path&gt;" class="s3" d="m618.3 124.3h-49.9c-6.7 0-12.2 5.7-12.2 12.7v9c0 7-5.4 12.7-12.1 12.7l-97.3-0.1c-6.7 0-12.2-5.6-12.2-12.6v-9.1c0-7-5.4-12.7-12.1-12.7h-17.6-43.7c-21.7 0-39.3 17.6-39.3 39.3l-0.1 630.4c0 21.7 17.5 39.3 39.2 39.3l257.2 0.1c21.7 0.1 39.3-17.5 39.3-39.3l0.1-630.4c0-21.7-17.6-39.3-39.3-39.3z"/>
													</g>
												</g>
											</g>
											<g id="&lt;Group&gt;">
												<g id="&lt;Group&gt;">
													<g id="&lt;Group&gt;">
														<g id="&lt;Group&gt;">
															<path id="&lt;Path&gt;" class="s6" d="m618.3 122.3q0 0 1.4 0.1c0.9 0.1 2.2 0 4 0.3 3.4 0.4 8.7 1.5 14.7 5.1 3 1.7 6.1 4.1 9 7.2 2.9 3.2 5.5 7.1 7.4 11.8 2 4.6 3 10.1 3 15.9q0 8.7 0 18.6c0 52.3 0.1 128.1 0.1 221.7 0.1 93.6 0.1 205.1 0.1 328.9q0 23.2 0 47 0 5.9 0 11.9c0 4-0.3 8.1-1.5 12-1.1 3.9-2.7 7.7-5 11.1-2.3 3.4-5.1 6.4-8.2 9-6.4 5.2-14.4 8.4-22.7 8.9-8.2 0.2-16.4 0-24.7 0.1q-24.8 0-50.1-0.1c-33.6 0-67.9 0-102.7 0q-26.1 0-52.5 0-13.3 0-26.6-0.1c-8.9 0.5-18.1-1.8-25.6-7-7.4-5.2-13-12.9-15.5-21.5-1.4-4.3-1.7-8.9-1.7-13.3q0-6.7 0-13.3 0-26.4 0-52.5c0-34.8 0-69.1 0.1-102.8 0-67.4 0-132.3 0-194.2 0.1-61.9 0.1-120.8 0.1-175.8 0-27.5 0-54.1 0.1-79.7q0-4.8 0-9.5c0-1.6 0.1-3.2 0.2-4.8 0.3-1.5 0.4-3.1 0.8-4.7 1.4-6.1 4.3-11.9 8.3-16.6 4-4.7 9-8.5 14.5-10.9 5.6-2.5 11.6-3.4 17.5-3.3q17.6 0 34.3 0 8.3 0 16.5 0 4 0.1 8 0.1c2.7-0.2 5.5 0.6 7.8 2.1 2.2 1.6 3.9 3.8 4.8 6.3 1 2.6 0.7 5.3 0.8 7.8q0 1.9 0 3.8c0 1.3-0.1 2.6 0.1 3.8 0.3 2.4 1.3 4.7 2.9 6.5 1.6 1.9 3.7 3.2 6 3.8 1.2 0.3 2.3 0.3 3.6 0.3q1.8 0 3.6 0 7.2 0 14.2 0c18.6 0.1 35.9 0.1 51.8 0.1q12 0 22.9 0.1c1.8-0.1 3.6 0 5.3-0.1 1.7-0.2 3.4-0.8 4.8-1.7 2.9-1.8 4.9-4.8 5.5-7.9 0.4-1.6 0.3-3.2 0.3-4.8q0-2.4 0-4.7c0.1-1.5 0-3.1 0.2-4.6 0.3-1.5 0.8-2.9 1.5-4.2 1.4-2.6 3.7-4.5 6.3-5.5 2.6-1.2 5.3-0.8 7.8-0.9 10.1 0.1 18.6 0.1 25.5 0.1 6.9 0 12.1 0.1 15.7 0.1 3.5 0 5.3 0 5.3 0 0 0-1.8 0.1-5.3 0.1-3.6 0-8.8 0-15.7 0-6.9 0-15.4 0.1-25.5 0.1-2.5 0-5.2-0.3-7.7 0.8-2.4 1-4.7 2.9-6 5.4-0.7 1.3-1.2 2.6-1.5 4.1-0.2 1.4-0.1 3-0.2 4.5q0.1 2.3 0.1 4.7c-0.1 1.6 0 3.2-0.4 4.9-0.6 3.2-2.6 6.3-5.6 8.2-1.5 0.9-3.2 1.6-5 1.8-1.9 0.1-3.6 0-5.4 0q-10.9 0-22.9 0.1c-15.9 0-33.2 0-51.8 0q-7 0-14.2 0-1.8 0-3.6 0c-1.2 0-2.5-0.1-3.7-0.4-2.5-0.6-4.7-2-6.4-3.9-1.7-1.9-2.7-4.4-3.1-6.9-0.2-1.3-0.1-2.6-0.1-3.9q0-1.9 0-3.8c0-2.6 0.2-5.2-0.8-7.5-0.8-2.4-2.4-4.5-4.5-6-2.2-1.5-4.7-2.2-7.4-2q-4 0-8 0-8.2 0-16.5 0-16.7 0-34.3 0c-5.8-0.1-11.7 0.8-17.1 3.2-5.5 2.4-10.4 6.1-14.3 10.7-3.9 4.7-6.7 10.3-8.1 16.3-0.4 1.5-0.5 3.1-0.8 4.6 0 1.6-0.2 3.1-0.2 4.7q0 4.7 0 9.5c0 25.6 0 52.2 0 79.7 0 55 0 113.9 0.1 175.8 0 61.9 0 126.8-0.1 194.2 0 33.7 0 68 0 102.8q0 26.1 0 52.5 0 6.6 0 13.3c0 4.4 0.3 8.7 1.6 12.9 2.5 8.4 7.9 16 15.2 21 7.2 5 16.1 7.3 24.9 6.8q13.3 0 26.6 0.1 26.4 0 52.5 0c34.8 0 69.1 0 102.7 0.1q25.3 0 50.1 0c8.2-0.1 16.5 0.1 24.6-0.1 8.1-0.4 15.9-3.6 22.1-8.6 3.1-2.5 5.8-5.5 8-8.8 2.2-3.3 3.8-7 4.9-10.8 1.2-3.8 1.4-7.8 1.5-11.7q0-6 0-11.9 0-23.8 0-47c0-123.8 0.1-235.3 0.2-328.9 0.1-93.6 0.1-169.4 0.2-221.7q0-9.9 0-18.6c0.1-5.8-0.9-11.2-2.9-15.8-1.8-4.7-4.5-8.6-7.3-11.7-2.9-3.1-5.9-5.5-8.9-7.2-5.9-3.6-11.2-4.8-14.7-5.2-1.7-0.4-3-0.3-3.9-0.4q-1.4-0.1-1.4-0.1z"/>
														</g>
													</g>
												</g>
											</g>
										</g>
									</g>
								</g>
							</g>
						</g>
					</g>
					<g id="&lt;Group&gt;">
						<g id="&lt;Group&gt;">
							<g id="&lt;Group&gt;">
								<g id="&lt;Group&gt;">
									<g id="&lt;Group&gt;">
										<g id="&lt;Group&gt;">
											<g id="&lt;Group&gt;">
												<path id="&lt;Path&gt;" class="s6" d="m625.9 194.5c0 0.1-6.5 0.3-14.5 0.4-8.1 0-14.6 0-14.6-0.2 0-0.2 6.5-0.4 14.6-0.4 8-0.1 14.5 0 14.5 0.2z"/>
											</g>
										</g>
									</g>
								</g>
							</g>
						</g>
						<g id="&lt;Group&gt;">
							<g id="&lt;Group&gt;">
								<g id="&lt;Group&gt;">
									<g id="&lt;Group&gt;">
										<g id="&lt;Group&gt;">
											<g id="&lt;Group&gt;">
												<path id="&lt;Path&gt;" class="s6" d="m625.9 201.9c0 0.1-6.5 0.3-14.5 0.4-8 0.1-14.5 0-14.5-0.2 0-0.1 6.5-0.3 14.5-0.4 8-0.1 14.5 0 14.5 0.2z"/>
											</g>
										</g>
									</g>
								</g>
							</g>
						</g>
						<g id="&lt;Group&gt;">
							<g id="&lt;Group&gt;">
								<g id="&lt;Group&gt;">
									<g id="&lt;Group&gt;">
										<g id="&lt;Group&gt;">
											<g id="&lt;Group&gt;">
												<path id="&lt;Path&gt;" class="s6" d="m626 209.3c0 0.2-6.5 0.4-14.5 0.4-8 0.1-14.5 0-14.5-0.2 0-0.1 6.5-0.3 14.5-0.4 8 0 14.5 0 14.5 0.2z"/>
											</g>
										</g>
									</g>
								</g>
							</g>
						</g>
					</g>
					<g id="&lt;Group&gt;">
						<g id="&lt;Group&gt;">
							<g id="&lt;Group&gt;">
								<g id="&lt;Group&gt;">
									<g id="&lt;Group&gt;">
										<g id="&lt;Group&gt;">
											<path id="&lt;Path&gt;" class="s7" d="m362 218q0 0 0.6 0 0.7 0 1.7-0.1 2.4 0 6.2-0.1l-0.2 0.2q0-2.1-0.1-4.5c0-0.9 0-1.7 0-2.6 0.2-1 1.1-1.8 2.1-1.9 1-0.1 1.9-0.1 3-0.1 1.1 0.2 2 1.3 2 2.4q0 3.2 0.1 6.6l-0.3-0.3q3.8 0 7.8-0.1l-0.3 0.3q0-4.7-0.1-9.7 0-1.3 0-2.5c0-0.7-0.5-1.3-1.1-1.8q-1.7-1.7-3.4-3.4-1.7-1.7-3.3-3.3-0.8-0.7-1.6-1.5c-0.5-0.6-1-1.1-1.6-1.2-0.6-0.2-1.3-0.1-1.8 0.3-0.5 0.4-1 1-1.5 1.4q-1.4 1.5-2.8 2.9c-1.7 1.8-3.6 3.5-4.9 5.1-0.6 0.8-0.4 1.9-0.4 2.9q0 1.4 0 2.7 0 2.6 0 4.5-0.1 1.7-0.1 2.8 0 1 0 1 0 0-0.1-0.9 0-1.1 0-2.8-0.1-1.9-0.1-4.5-0.1-1.3-0.1-2.8 0-0.7 0-1.5c0-0.6 0.1-1.2 0.4-1.7 1.5-1.7 3.2-3.3 5-5.2q1.3-1.4 2.8-2.8c0.5-0.5 0.9-1 1.5-1.5 0.6-0.5 1.4-0.7 2.2-0.5 0.9 0.2 1.4 0.9 1.9 1.4q0.8 0.7 1.6 1.5 1.6 1.6 3.3 3.3 1.7 1.6 3.4 3.3c0.3 0.3 0.6 0.6 0.9 1 0.3 0.4 0.4 0.8 0.4 1.3q0 1.2 0 2.5 0.1 5 0.1 9.7v0.3h-0.3q-4 0.1-7.8 0.1h-0.3v-0.3q0-3.4 0-6.6c0-0.9-0.7-1.7-1.6-1.9-0.9 0-2 0-2.8 0-0.9 0.1-1.6 0.8-1.7 1.6-0.1 0.7 0 1.7-0.1 2.5q0 2.4 0 4.5v0.1h-0.1q-3.9 0-6.3 0-1 0-1.7 0-0.5-0.1-0.5-0.1z"/>
										</g>
									</g>
								</g>
							</g>
						</g>
					</g>
				</g>
			</g>
			<g id="&lt;Group&gt;">
				<path id="&lt;Compound Path&gt;" class="s6" d="m437.2 281l3.1-3.7c1.6 2.2 3.5 3.3 5.8 3.3 3 0 4.5-1.8 4.5-5.4v-15.1h-10.4v-4.6h15.9v19.5c0 6.9-3.4 10.2-9.9 10.2-3.7 0-7-1.5-9-4.2z"/>
				<path id="&lt;Compound Path&gt;" fill-rule="evenodd" class="s6" d="m482.9 270.7v13.1h-4.9v-2.7c-1.3 1.9-3.7 3-7.1 3-5.1 0-8.3-2.8-8.3-6.7 0-3.7 2.5-6.6 9.3-6.6h5.8v-0.4c0-3-1.9-4.8-5.6-4.8-2.5 0-5.1 0.8-6.8 2.2l-2-3.8c2.4-1.8 5.8-2.8 9.4-2.8 6.5 0 10.2 3.1 10.2 9.5zm-5.2 6.1v-2.6h-5.4c-3.6 0-4.5 1.4-4.5 3 0 1.9 1.5 3.1 4.2 3.1 2.6 0 4.8-1.2 5.7-3.5z"/>
				<path id="&lt;Compound Path&gt;" class="s6" d="m511.6 271v12.8h-5.2v-12.1c0-4-2-5.9-5.3-5.9-3.8 0-6.3 2.3-6.3 6.7v11.3h-5.2v-22.3h5v2.9c1.7-2.1 4.4-3.2 7.7-3.2 5.3 0 9.3 3.1 9.3 9.8z"/>
				<path id="&lt;Compound Path&gt;" fill-rule="evenodd" class="s6" d="m539.4 274.3h-17.6c0.7 3.3 3.4 5.4 7.3 5.4 2.5 0 4.5-0.8 6-2.4l2.8 3.2c-2 2.4-5.1 3.6-8.9 3.6-7.5 0-12.4-4.8-12.4-11.4 0-6.7 4.9-11.5 11.6-11.5 6.5 0 11.3 4.6 11.3 11.6 0 0.4-0.1 1-0.1 1.5zm-17.6-3.4h12.7c-0.4-3.3-2.9-5.5-6.3-5.5-3.4 0-5.9 2.2-6.4 5.5z"/>
			</g>
			<g id="&lt;Group&gt;">
				<path id="&lt;Compound Path&gt;" fill-rule="evenodd" class="s6" d="m464.9 305.9c0-4.3 2.2-6.8 5.3-6.8 3 0 5.3 2.5 5.3 6.8 0 4.2-2.3 6.7-5.3 6.7-3.1 0-5.3-2.5-5.3-6.7zm9.2 0c0-3.6-1.6-5.5-3.9-5.5-2.4 0-3.9 1.9-3.9 5.5 0 3.5 1.5 5.5 3.9 5.5 2.3 0 3.9-2 3.9-5.5z"/>
				<path id="&lt;Compound Path&gt;" class="s6" d="m488.7 309h-2.7v3.5h-1.3v-3.5h-7.5v-1l7-8.8h1.5l-6.8 8.6h5.8v-3.1h1.3v3.1h2.7z"/>
				<path id="&lt;Compound Path&gt;" class="s6" d="m490.1 303.5c0-0.6 0.4-1.1 1-1.1 0.5 0 1 0.5 1 1.1 0 0.6-0.5 1-1 1-0.6 0-1-0.4-1-1zm0 8c0-0.5 0.4-1 1-1 0.5 0 1 0.5 1 1 0 0.6-0.5 1.1-1 1.1-0.6 0-1-0.5-1-1.1z"/>
				<path id="&lt;Compound Path&gt;" class="s6" d="m503.1 308.6c0 2.2-1.6 4-4.9 4-1.9 0-3.7-0.7-4.7-1.7l0.7-1.1c0.8 0.9 2.3 1.6 4 1.6 2.3 0 3.5-1.1 3.5-2.8 0-1.7-1.1-2.7-4.5-2.7h-2.8l0.7-6.7h7.3v1.2h-6.1l-0.5 4.3h1.7c4 0 5.6 1.5 5.6 3.9z"/>
				<path id="&lt;Compound Path&gt;" fill-rule="evenodd" class="s6" d="m514.8 308.5c0 2.5-2 4.1-4.6 4.1-3.5 0-5.4-2.4-5.4-6.6 0-4.5 2.4-6.9 6-6.9 1.2 0 2.4 0.2 3.2 0.7l-0.6 1.1c-0.6-0.4-1.5-0.6-2.5-0.6-2.9 0-4.7 1.8-4.7 5.4q0 0.5 0 1.1c0.7-1.4 2.2-2.3 4.1-2.3 2.6 0 4.5 1.6 4.5 4zm-1.4 0.1c0-1.8-1.3-2.9-3.3-2.9-2.1 0-3.4 1.3-3.4 2.9 0 1.5 1.2 2.8 3.5 2.8 1.9 0 3.2-1.1 3.2-2.8z"/>
			</g>
			<g id="&lt;Group&gt;">
				<g id="&lt;Group&gt;">
					<g id="&lt;Group&gt;">
						<g id="&lt;Group&gt;">
							<path id="&lt;Path&gt;" class="s8" d="m457.9 692.2c-17.5-17.5-17.5-45.9 0-63.5 17.5-17.5 45.9-17.5 63.4 0 17.6 17.6 17.6 46 0 63.5-17.5 17.5-45.9 17.5-63.4 0z"/>
						</g>
					</g>
				</g>
				<g id="&lt;Group&gt;">
					<path id="&lt;Path&gt;" class="s3" d="m470 667.8l8-1.8c0.9-0.3 1.6-1.2 1.6-2.2v-1.6c0 0-0.3-2.8 2.3-3 1.9-0.1 14 0 14 0 0 0 3.1-0.1 3.1 2.4v2.4c0 0.9 0.5 1.6 1.3 1.8l8.7 2.7c0.9 0.2 1.9-0.2 2.3-1.1l1.1-2.7q0.3-0.7 0.3-1.5c-0.1-1.1-0.5-2.7-1.5-4.1-1.8-2.2-9.9-7.4-25.3-6.6-14.8 0.7-18 6.9-18.8 8.4-0.6 0.9-0.7 3.2-0.3 4.1 0.1 0.4 0.4 1 0.6 1.6 0.4 0.9 1.5 1.5 2.6 1.2z"/>
				</g>
			</g>
			<g id="&lt;Group&gt;">
				<g id="&lt;Group&gt;">
					<g id="&lt;Group&gt;">
						<path id="&lt;Path&gt;" class="s9" d="m440.6 421.5c0 18.3-14.9 33.2-33.2 33.2-18.4 0-33.2-14.9-33.2-33.2 0-18.4 14.8-33.2 33.2-33.2 18.3 0 33.2 14.8 33.2 33.2z"/>
					</g>
				</g>
				<g id="&lt;Group&gt;">
					<g id="&lt;Group&gt;">
						<path id="&lt;Compound Path&gt;" fill-rule="evenodd" class="s3" d="m407.4 428.9c-3.3 0-6-2.7-6-6v-13c0-3.3 2.7-6 6-6 3.3 0 6 2.7 6 6v13c0 3.3-2.7 6-6 6zm0-23.7c-2.6 0-4.7 2.1-4.7 4.7v13c0 2.6 2.1 4.8 4.7 4.8 2.6 0 4.7-2.2 4.7-4.8v-13c0-2.6-2.1-4.7-4.7-4.7z"/>
					</g>
				</g>
				<g id="&lt;Group&gt;">
					<g id="&lt;Group&gt;">
						<path id="&lt;Path&gt;" class="s3" d="m407.4 433.1c-3.6 0-6.4-1.1-8.4-3.3-3.8-4.2-3.2-10.8-3.2-11.1 0-0.4 0.4-0.6 0.7-0.6 0.3 0.1 0.6 0.4 0.6 0.7 0 0.1-0.6 6.4 2.8 10.2 1.8 1.9 4.3 2.9 7.5 2.9 3.2 0 5.7-1 7.6-2.9 3.6-3.9 3.4-10.2 3.4-10.2 0-0.4 0.3-0.7 0.6-0.7 0.4 0.1 0.6 0.3 0.7 0.6 0 0.3 0.2 6.9-3.8 11.1-2.1 2.2-5 3.3-8.5 3.3z"/>
					</g>
				</g>
				<g id="&lt;Group&gt;">
					<g id="&lt;Group&gt;">
						<path id="&lt;Path&gt;" class="s3" d="m407.4 442.3c-0.4 0-0.6-0.3-0.6-0.6v-9.2c0-0.4 0.2-0.6 0.6-0.6 0.3 0 0.6 0.2 0.6 0.6v9.2c0 0.3-0.3 0.6-0.6 0.6z"/>
					</g>
				</g>
			</g>
			<g id="&lt;Group&gt;">
				<g id="&lt;Group&gt;">
					<g id="&lt;Group&gt;">
						<path id="&lt;Path&gt;" class="s9" d="m527.8 421.5c0 18.3-14.9 33.2-33.2 33.2-18.4 0-33.2-14.9-33.2-33.2 0-18.4 14.8-33.2 33.2-33.2 18.3 0 33.2 14.8 33.2 33.2z"/>
					</g>
				</g>
				<g id="&lt;Group&gt;">
					<g id="&lt;Group&gt;">
						<path id="&lt;Path&gt;" class="s3" d="m489.4 421.5c0 2.1-1.8 3.9-3.9 3.9-2.1 0-3.9-1.8-3.9-3.9 0-2.1 1.8-3.9 3.9-3.9 2.1 0 3.9 1.8 3.9 3.9z"/>
					</g>
					<g id="&lt;Group&gt;">
						<path id="&lt;Path&gt;" class="s3" d="m498.4 421.5c0 2.1-1.7 3.9-3.8 3.9-2.2 0-3.9-1.8-3.9-3.9 0-2.1 1.7-3.9 3.9-3.9 2.1 0 3.8 1.8 3.8 3.9z"/>
					</g>
					<g id="&lt;Group&gt;">
						<path id="&lt;Path&gt;" class="s3" d="m507.5 421.5c0 2.1-1.7 3.9-3.9 3.9-2.1 0-3.8-1.8-3.8-3.9 0-2.1 1.7-3.9 3.8-3.9 2.2 0 3.9 1.8 3.9 3.9z"/>
					</g>
					<g id="&lt;Group&gt;">
						<path id="&lt;Path&gt;" class="s3" d="m489.4 412.3c0 2.1-1.8 3.9-3.9 3.9-2.1 0-3.9-1.8-3.9-3.9 0-2.1 1.8-3.9 3.9-3.9 2.1 0 3.9 1.8 3.9 3.9z"/>
					</g>
					<g id="&lt;Group&gt;">
						<path id="&lt;Path&gt;" class="s3" d="m498.4 412.3c0 2.1-1.7 3.9-3.8 3.9-2.2 0-3.9-1.8-3.9-3.9 0-2.1 1.7-3.9 3.9-3.9 2.1 0 3.8 1.8 3.8 3.9z"/>
					</g>
					<g id="&lt;Group&gt;">
						<path id="&lt;Path&gt;" class="s3" d="m507.5 412.3c0 2.1-1.7 3.9-3.9 3.9-2.1 0-3.8-1.8-3.8-3.9 0-2.1 1.7-3.9 3.8-3.9 2.2 0 3.9 1.8 3.9 3.9z"/>
					</g>
					<g id="&lt;Group&gt;">
						<path id="&lt;Path&gt;" class="s3" d="m489.4 430.6c0 2.2-1.8 3.9-3.9 3.9-2.1 0-3.9-1.7-3.9-3.9 0-2.1 1.8-3.8 3.9-3.8 2.1 0 3.9 1.7 3.9 3.8z"/>
					</g>
					<g id="&lt;Group&gt;">
						<path id="&lt;Path&gt;" class="s3" d="m498.4 430.6c0 2.2-1.7 3.9-3.8 3.9-2.2 0-3.9-1.7-3.9-3.9 0-2.1 1.7-3.8 3.9-3.8 2.1 0 3.8 1.7 3.8 3.8z"/>
					</g>
					<g id="&lt;Group&gt;">
						<path id="&lt;Path&gt;" class="s3" d="m507.5 430.6c0 2.2-1.7 3.9-3.9 3.9-2.1 0-3.8-1.7-3.8-3.9 0-2.1 1.7-3.8 3.8-3.8 2.2 0 3.9 1.7 3.9 3.8z"/>
					</g>
				</g>
			</g>
			<g id="&lt;Group&gt;">
				<g id="&lt;Group&gt;">
					<g id="&lt;Group&gt;">
						<path id="&lt;Path&gt;" class="s9" d="m615 421.5c0 18.3-14.9 33.2-33.2 33.2-18.4 0-33.3-14.9-33.3-33.2 0-18.4 14.9-33.2 33.3-33.2 18.3 0 33.2 14.8 33.2 33.2z"/>
					</g>
				</g>
				<g id="&lt;Group&gt;">
					<g id="&lt;Group&gt;">
						<path id="&lt;Path&gt;" class="s3" d="m566.2 417.1v7.9c0 0.3 0.2 0.6 0.6 0.6h4.3q0.2 0 0.4 0.1l6.7 5.3c0.4 0.3 1 0 1-0.5v-18.3c0-0.5-0.5-0.8-0.9-0.5l-6.6 4.7q-0.1 0.1-0.3 0.1h-4.6c-0.4 0-0.6 0.3-0.6 0.6z"/>
					</g>
					<g id="&lt;Group&gt;">
						<path id="&lt;Path&gt;" class="s3" d="m591.8 434.7q-0.3 0-0.5-0.2c-0.3-0.2-0.3-0.7-0.1-1 3.8-4.2 5.6-8.6 5.4-13-0.4-6.5-5.3-10.9-5.3-11-0.3-0.3-0.4-0.7-0.1-1.1 0.3-0.3 0.8-0.3 1.1 0 0.2 0.2 5.4 4.8 5.8 12 0.2 4.8-1.7 9.6-5.7 14.1q-0.3 0.2-0.6 0.2z"/>
					</g>
					<g id="&lt;Group&gt;">
						<path id="&lt;Path&gt;" class="s3" d="m587.6 431q-0.3 0-0.5-0.2c-0.3-0.3-0.3-0.8 0-1.1 2.7-2.5 4-5.2 4-8.1 0-5-4-8.8-4-8.9-0.3-0.3-0.3-0.7 0-1 0.2-0.3 0.7-0.4 1-0.1 0.2 0.2 4.6 4.3 4.6 10 0 3.3-1.6 6.4-4.6 9.2q-0.2 0.2-0.5 0.2z"/>
					</g>
					<g id="&lt;Group&gt;">
						<path id="&lt;Path&gt;" class="s3" d="m583.9 427.2q-0.3 0-0.5-0.2c-0.3-0.3-0.3-0.8 0-1.1 4.6-4.6 0.1-9.9-0.1-10.1-0.3-0.3-0.2-0.8 0.1-1.1 0.3-0.3 0.8-0.2 1.1 0.1 0 0.1 5.6 6.5-0.1 12.2q-0.2 0.2-0.5 0.2z"/>
					</g>
				</g>
			</g>
			<g id="&lt;Group&gt;">
				<g id="&lt;Group&gt;">
					<g id="&lt;Group&gt;">
						<path id="&lt;Path&gt;" class="s9" d="m440 527.6c0 18.3-14.9 33.2-33.2 33.2-18.4 0-33.2-14.9-33.2-33.2 0-18.4 14.8-33.2 33.2-33.2 18.3 0 33.2 14.8 33.2 33.2z"/>
					</g>
				</g>
				<g id="&lt;Group&gt;">
					<g id="&lt;Group&gt;">
						<path id="&lt;Path&gt;" class="s3" d="m407 539.1c-0.6 0-1.1-0.5-1.1-1v-21c0-0.6 0.5-1 1.1-1 0.5 0 1 0.4 1 1v21c0 0.5-0.5 1-1 1z"/>
					</g>
					<g id="&lt;Group&gt;">
						<path id="&lt;Path&gt;" class="s3" d="m416.9 528.6h-20.3c-0.6 0-1-0.5-1-1 0-0.6 0.4-1 1-1h20.3c0.6 0 1 0.4 1 1 0 0.5-0.4 1-1 1z"/>
					</g>
				</g>
			</g>
			<g id="&lt;Group&gt;">
				<g id="&lt;Group&gt;">
					<g id="&lt;Group&gt;">
						<path id="&lt;Path&gt;" class="s9" d="m612.4 527.6c0 18.3-14.9 33.2-33.2 33.2-18.4 0-33.2-14.9-33.2-33.2 0-18.4 14.8-33.2 33.2-33.2 18.3 0 33.2 14.8 33.2 33.2z"/>
					</g>
				</g>
				<g id="&lt;Group&gt;">
					<g id="&lt;Group&gt;">
						<g id="&lt;Group&gt;">
							<g id="&lt;Group&gt;">
								<g id="&lt;Group&gt;">
									<path id="&lt;Path&gt;" class="s0" d="m581.4 528c2.3-0.9 3.9-3.3 3.9-6 0-3.5-2.7-6.4-6-6.5-3.4 0-6.1 2.9-6.1 6.5 0 2.7 1.6 5 3.8 6-9.3 1.4-8.8 11.5-8.8 11.5l22 0.1c0 0 0.5-10.2-8.8-11.6z"/>
								</g>
							</g>
						</g>
					</g>
				</g>
			</g>
			<g id="&lt;Group&gt;">
				<g id="&lt;Group&gt;">
					<g id="&lt;Group&gt;">
						<path id="&lt;Path&gt;" class="s9" d="m526.2 527.6c0 18.3-14.9 33.2-33.2 33.2-18.4 0-33.2-14.9-33.2-33.2 0-18.4 14.8-33.2 33.2-33.2 18.3 0 33.2 14.8 33.2 33.2z"/>
					</g>
				</g>
				<g id="&lt;Group&gt;">
					<g id="&lt;Group&gt;">
						<path id="&lt;Path&gt;" class="s0" d="m493 535.1h-6.7c-2.3 0-4.2-1.9-4.2-4.2v-6.7c0-2.3 1.9-4.2 4.2-4.2h6.7c2.3 0 4.2 1.9 4.2 4.2v6.7c0 2.3-1.9 4.2-4.2 4.2z"/>
					</g>
					<g id="&lt;Group&gt;">
						<path id="&lt;Path&gt;" class="s0" d="m498.6 530.3v-5.2l3.8-4c0.5-0.6 1.4-0.2 1.4 0.5v11.6c0 0.8-0.9 1.1-1.4 0.6z"/>
					</g>
				</g>
			</g>
		</g>
	</g>
	<g id="Character">
		<g id="&lt;Group&gt;">
			<g id="&lt;Group&gt;">
				<g id="&lt;Group&gt;">
					<g id="&lt;Group&gt;">
						<g id="&lt;Group&gt;">
							<g id="&lt;Group&gt;">
								<g id="&lt;Group&gt;">
									<g id="&lt;Group&gt;">
										<path id="&lt;Path&gt;" class="s8" d="m835.6 872.3l23.5 41.8 28 27.7c2 2 1.9 5.3-0.2 7.2-1.2 1-2.8 1.4-4.4 1.1-9.8-2.3-46-11-47.6-14.2-1.8-3.7-27.6-42.4-27.6-42.4z"/>
									</g>
								</g>
							</g>
						</g>
					</g>
				</g>
				<g id="&lt;Group&gt;" style="opacity: .6">
					<g id="&lt;Group&gt;">
						<g id="&lt;Group&gt;">
							<g id="&lt;Group&gt;">
								<g id="&lt;Group&gt;">
									<g id="&lt;Group&gt;">
										<path id="&lt;Path&gt;" class="s3" d="m886.9 949l-53.6-15.9 1 1.8c0.9 1.5 2.3 2.6 4 3.2 4.4 1.5 16.7 5.5 44.1 12.1 1.6 0.3 3.3-0.1 4.5-1.2z"/>
									</g>
								</g>
							</g>
						</g>
					</g>
				</g>
				<g id="&lt;Group&gt;" style="opacity: .6">
					<g id="&lt;Group&gt;">
						<g id="&lt;Group&gt;">
							<g id="&lt;Group&gt;">
								<g id="&lt;Group&gt;">
									<g id="&lt;Group&gt;">
										<g id="&lt;Group&gt;">
											<path id="&lt;Path&gt;" class="s3" d="m833.9 914.8c1.4 0.1 2.7 1.5 2.7 2.9-0.1 1.5-1.5 2.8-2.9 2.7-1.5-0.1-3-1.7-2.8-3.1 0.2-1.4 1.9-2.9 3.3-2.4"/>
										</g>
									</g>
								</g>
							</g>
						</g>
					</g>
				</g>
				<g id="&lt;Group&gt;">
					<g id="&lt;Group&gt;">
						<g id="&lt;Group&gt;">
							<g id="&lt;Group&gt;">
								<g id="&lt;Group&gt;">
									<g id="&lt;Group&gt;">
										<g id="&lt;Group&gt;">
											<path id="&lt;Path&gt;" class="s6" d="m866.8 936.5c0.3 0 0-2.7 1.8-5.3 1.6-2.7 4.3-3.4 4.2-3.7-0.1-0.1-0.8-0.2-1.8 0.3-1.1 0.4-2.4 1.4-3.3 2.8-1 1.5-1.3 3.1-1.3 4.2 0 1.1 0.3 1.8 0.4 1.7z"/>
										</g>
									</g>
								</g>
							</g>
						</g>
					</g>
				</g>
				<g id="&lt;Group&gt;">
					<g id="&lt;Group&gt;">
						<g id="&lt;Group&gt;">
							<g id="&lt;Group&gt;">
								<g id="&lt;Group&gt;">
									<g id="&lt;Group&gt;">
										<g id="&lt;Group&gt;">
											<path id="&lt;Path&gt;" class="s6" d="m873 940.3c0.3 0.1 0.9-2 2.6-3.9 1.8-1.9 3.8-2.6 3.8-2.9 0-0.3-2.5 0-4.5 2.2-2 2.1-2.1 4.6-1.9 4.6z"/>
										</g>
									</g>
								</g>
							</g>
						</g>
					</g>
				</g>
				<g id="&lt;Group&gt;">
					<g id="&lt;Group&gt;">
						<g id="&lt;Group&gt;">
							<g id="&lt;Group&gt;">
								<g id="&lt;Group&gt;">
									<g id="&lt;Group&gt;">
										<g id="&lt;Group&gt;">
											<path id="&lt;Path&gt;" class="s6" d="m857.2 932.7c0.3 0.1 1.1-3.2 3.6-6.4 2.4-3.1 5.4-4.7 5.3-5-0.1-0.3-3.5 1-6.1 4.4-2.7 3.4-3.1 7-2.8 7z"/>
										</g>
									</g>
								</g>
							</g>
						</g>
					</g>
				</g>
				<g id="&lt;Group&gt;">
					<g id="&lt;Group&gt;">
						<g id="&lt;Group&gt;">
							<g id="&lt;Group&gt;">
								<g id="&lt;Group&gt;">
									<g id="&lt;Group&gt;">
										<g id="&lt;Group&gt;">
											<path id="&lt;Path&gt;" class="s6" d="m849 920.6c0.3 0.2 2-2.1 4.9-4 2.9-1.9 5.7-2.5 5.6-2.8 0-0.3-3.1-0.1-6.2 1.9-3.1 2-4.5 4.8-4.3 4.9z"/>
										</g>
									</g>
								</g>
							</g>
						</g>
					</g>
				</g>
				<g id="&lt;Group&gt;">
					<g id="&lt;Group&gt;">
						<g id="&lt;Group&gt;">
							<g id="&lt;Group&gt;">
								<g id="&lt;Group&gt;">
									<g id="&lt;Group&gt;">
										<g id="&lt;Group&gt;">
											<path id="&lt;Path&gt;" class="s6" d="m841.8 908.5c0.3 0.1 1.8-2.6 5-4.3 3.2-1.8 6.3-1.5 6.3-1.8 0-0.2-0.8-0.4-2-0.4-1.3 0-3.1 0.3-4.8 1.3-1.7 0.9-3 2.2-3.7 3.3-0.7 1.1-0.9 1.8-0.8 1.9z"/>
										</g>
									</g>
								</g>
							</g>
						</g>
					</g>
				</g>
				<g id="&lt;Group&gt;">
					<g id="&lt;Group&gt;">
						<g id="&lt;Group&gt;">
							<g id="&lt;Group&gt;">
								<g id="&lt;Group&gt;">
									<g id="&lt;Group&gt;">
										<g id="&lt;Group&gt;">
											<path id="&lt;Path&gt;" class="s6" d="m845.4 901.9c0 0-0.2-0.6-0.9-1.5-0.7-1-1.9-2.3-3.7-3.4-0.9-0.5-1.9-1.2-3.4-1.1-0.7 0.1-1.5 0.7-1.7 1.5-0.1 0.8 0.1 1.6 0.5 2.3 1.6 2.6 5.3 3.8 8.5 2.4 3.1-1.4 4.8-4.7 4.6-7.6-0.1-0.8-0.3-1.6-1-2.1-0.8-0.5-1.8-0.3-2.3 0.2-1.1 0.9-1.5 2-1.9 3-0.7 1.9-0.9 3.7-0.9 4.8 0 1.2 0.1 1.8 0.2 1.8 0.2 0.1-0.1-2.6 1.4-6.4 0.4-0.9 0.9-1.9 1.7-2.5 0.4-0.3 0.9-0.4 1.3-0.1 0.3 0.2 0.5 0.8 0.6 1.4 0.1 2.4-1.5 5.4-4.1 6.5-2.7 1.2-6 0.2-7.3-1.9-0.3-0.5-0.5-1.1-0.4-1.6 0.1-0.4 0.5-0.7 1-0.8 0.9-0.2 2 0.4 2.9 0.8 3.5 2 4.7 4.5 4.9 4.3z"/>
										</g>
									</g>
								</g>
							</g>
						</g>
					</g>
				</g>
			</g>
			<g id="&lt;Group&gt;">
				<g id="&lt;Group&gt;">
					<g id="&lt;Group&gt;">
						<g id="&lt;Group&gt;">
							<g id="&lt;Group&gt;">
								<g id="&lt;Group&gt;">
									<path id="&lt;Path&gt;" class="s8" d="m785.4 890.7l-9.5 34.2c0 0 31.6 21.2 30.5 27.7l-67.1-16 12.6-54z"/>
								</g>
							</g>
						</g>
					</g>
					<g id="&lt;Group&gt;" style="opacity: .6">
						<g id="&lt;Group&gt;">
							<g id="&lt;Group&gt;">
								<g id="&lt;Group&gt;">
									<g id="&lt;Group&gt;">
										<path id="&lt;Path&gt;" class="s3" d="m755.8 917.1c-1.3 0-2.6 1.3-2.6 2.6 0 1.4 1.2 2.7 2.6 2.7 1.4 0 3-1.5 2.8-2.9-0.1-1.3-1.7-2.8-3-2.4"/>
									</g>
								</g>
							</g>
						</g>
					</g>
					<g id="&lt;Group&gt;" style="opacity: .6">
						<g id="&lt;Group&gt;">
							<g id="&lt;Group&gt;">
								<g id="&lt;Group&gt;">
									<path id="&lt;Path&gt;" class="s3" d="m739.3 936.6l1.5-5.4 63.7 17.4c0 0 2.7 2 1.9 4z"/>
								</g>
							</g>
						</g>
					</g>
					<g id="&lt;Group&gt;">
						<g id="&lt;Group&gt;">
							<g id="&lt;Group&gt;">
								<g id="&lt;Group&gt;">
									<g id="&lt;Group&gt;">
										<path id="&lt;Path&gt;" class="s6" d="m777.1 924.9c-0.1 0.3-1.8 0-3.7 0.7-1.8 0.6-3 1.8-3.3 1.6-0.3-0.1 0.7-1.9 3-2.7 2.2-0.8 4.1 0.1 4 0.4z"/>
									</g>
								</g>
							</g>
						</g>
					</g>
					<g id="&lt;Group&gt;">
						<g id="&lt;Group&gt;">
							<g id="&lt;Group&gt;">
								<g id="&lt;Group&gt;">
									<g id="&lt;Group&gt;">
										<path id="&lt;Path&gt;" class="s6" d="m783.4 929.5c0 0.3-1.5 0.5-3 1.6-1.5 1.1-2.1 2.5-2.4 2.4-0.4 0-0.1-2 1.7-3.3 1.8-1.4 3.8-1.1 3.7-0.7z"/>
									</g>
								</g>
							</g>
						</g>
					</g>
					<g id="&lt;Group&gt;">
						<g id="&lt;Group&gt;">
							<g id="&lt;Group&gt;">
								<g id="&lt;Group&gt;">
									<g id="&lt;Group&gt;">
										<path id="&lt;Path&gt;" class="s6" d="m785.4 938.8c-0.3 0-0.4-1.7 0.9-3.3 1.2-1.6 2.9-1.9 3-1.6 0.1 0.3-1.1 1-2.1 2.3-1.1 1.3-1.5 2.7-1.8 2.6z"/>
									</g>
								</g>
							</g>
						</g>
					</g>
					<g id="&lt;Group&gt;">
						<g id="&lt;Group&gt;">
							<g id="&lt;Group&gt;">
								<g id="&lt;Group&gt;">
									<g id="&lt;Group&gt;">
										<path id="&lt;Path&gt;" class="s6" d="m778.4 916.8c-0.2 0.3-1.6-0.5-3.5-0.9-1.9-0.3-3.5 0-3.6-0.4-0.1-0.2 1.6-1.1 3.8-0.7 2.2 0.4 3.5 1.8 3.3 2z"/>
									</g>
								</g>
							</g>
						</g>
					</g>
				</g>
				<g id="&lt;Group&gt;" style="opacity: .3">
					<g id="&lt;Group&gt;">
						<g id="&lt;Group&gt;">
							<g id="&lt;Group&gt;">
								<path id="&lt;Path&gt;" class="s10" d="m783.5 897.5l-1.7 6.1-32.9-8.2 1.7-7.1z"/>
							</g>
						</g>
					</g>
				</g>
				<g id="&lt;Group&gt;">
					<g id="&lt;Group&gt;">
						<g id="&lt;Group&gt;">
							<g id="&lt;Group&gt;">
								<g id="&lt;Group&gt;">
									<path id="&lt;Path&gt;" class="s6" d="m780.2 909.9c-0.1 0.1-1.4 0-3.4-0.9-1-0.4-2.1-1-3.3-1.9q-0.8-0.6-1.6-1.5c-0.3-0.2-0.6-0.5-0.9-1-0.2-0.4-0.2-1.3 0.3-1.8 0.5-0.4 1.1-0.5 1.6-0.4 0.5 0.1 0.9 0.3 1.2 0.5q1.1 0.5 2 1.2c1.1 0.9 2 1.9 2.6 2.8 1.2 1.8 1.4 3.2 1.3 3.2-0.2 0.1-0.7-1.1-2-2.7-0.6-0.8-1.5-1.6-2.6-2.4q-0.8-0.6-1.8-1.1c-0.6-0.3-1.2-0.5-1.5-0.2-0.1 0.1-0.1 0.1 0 0.4 0.1 0.2 0.3 0.5 0.6 0.7q0.7 0.8 1.5 1.5c1 0.8 2.1 1.5 3 2 1.8 1 3 1.4 3 1.6z"/>
								</g>
							</g>
						</g>
					</g>
				</g>
				<g id="&lt;Group&gt;">
					<g id="&lt;Group&gt;">
						<g id="&lt;Group&gt;">
							<g id="&lt;Group&gt;">
								<g id="&lt;Group&gt;">
									<path id="&lt;Path&gt;" class="s6" d="m779.6 910.2c-0.1 0.1-0.5-1.3-0.1-3.4 0.2-1.1 0.6-2.3 1.3-3.6q0.6-0.9 1.4-1.8c0.5-0.6 1.2-1.4 2.5-1.2 0.7 0.1 1.1 0.8 1.2 1.3 0.1 0.5 0.1 0.9 0.1 1.3-0.1 0.8-0.3 1.6-0.6 2.2-0.5 1.4-1.4 2.5-2.2 3.2-1.8 1.4-3.2 1.5-3.2 1.3-0.1-0.2 1.2-0.5 2.6-1.9 0.7-0.7 1.4-1.7 1.8-2.9q0.4-1 0.4-2c0.1-0.7 0-1.4-0.3-1.4-0.4-0.1-1.1 0.3-1.5 0.9q-0.7 0.7-1.2 1.6c-0.7 1.1-1.2 2.2-1.5 3.2-0.5 1.9-0.5 3.2-0.7 3.2z"/>
								</g>
							</g>
						</g>
					</g>
				</g>
			</g>
			<g id="&lt;Group&gt;">
				<g id="&lt;Group&gt;">
					<g id="&lt;Group&gt;">
						<g id="&lt;Group&gt;">
							<path id="&lt;Path&gt;" class="s6" d="m795.5 508.5c0 0 13.4 35.8 16.7 81.2 3.2 44.1-23.8 321-23.8 321l-52.9-9.6c0 0 11.8-97.5 17.8-145.2 6-46.9-17.8-211.1-17.8-211.1l56-36.3"/>
						</g>
					</g>
				</g>
				<g id="&lt;Group&gt;">
					<g id="&lt;Group&gt;">
						<g id="&lt;Group&gt;">
							<path id="&lt;Path&gt;" class="s6" d="m673.1 521c0 0-11.2 48 13.7 100.3 15 31.4 125.4 295.1 125.4 295.1l45.6-23.3-111.7-351z"/>
						</g>
					</g>
				</g>
				<g id="&lt;Group&gt;">
					<g id="&lt;Group&gt;">
						<g id="&lt;Group&gt;">
							<g id="&lt;Group&gt;">
								<path id="&lt;Path&gt;" class="s9" d="m816.3 762.6c-0.3 0.1-14.4-42.3-31.5-94.7-17-52.3-30.6-94.9-30.3-94.9 0.2-0.1 14.3 42.2 31.4 94.6 17.1 52.4 30.7 94.9 30.4 95z"/>
							</g>
						</g>
					</g>
				</g>
				<g id="&lt;Group&gt;">
					<g id="&lt;Group&gt;">
						<g id="&lt;Group&gt;">
							<g id="&lt;Group&gt;">
								<path id="&lt;Path&gt;" class="s9" d="m812.2 916.4c-0.3 0.1-22.5-51.7-49.7-115.8-27.1-64.1-48.9-116.1-48.7-116.2 0.3-0.1 22.6 51.7 49.7 115.8 27.2 64 49 116.1 48.7 116.2z"/>
							</g>
						</g>
					</g>
				</g>
				<g id="&lt;Group&gt;">
					<g id="&lt;Group&gt;">
						<path id="&lt;Path&gt;" class="s9" d="m751.6 565.2c-0.1 0.1-1.5-1-4-2.5-2.5-1.4-6.1-3.2-10.2-4.7q-3-1.2-5.8-2.2c-1.8-0.6-3.4-1.2-4.8-1.5-2.7-0.7-4.5-0.3-4.5-0.5-0.1-0.1 1.7-0.8 4.7-0.3 1.5 0.3 3.1 0.8 4.9 1.4 1.9 0.6 3.8 1.3 5.9 2.1 4.2 1.6 7.8 3.4 10.2 5.1 2.4 1.6 3.7 3 3.6 3.1z"/>
					</g>
				</g>
				<g id="&lt;Group&gt;">
					<g id="&lt;Group&gt;">
						<path id="&lt;Path&gt;" class="s9" d="m779.2 537.6c0.2 0.2-3.3 4.3-7.5 9.3-4.3 5.1-7.7 9.2-7.9 9.1-0.3-0.2 2.8-4.7 7.1-9.8 4.3-5 8.1-8.8 8.3-8.6z"/>
					</g>
				</g>
				<g id="&lt;Group&gt;">
					<g id="&lt;Group&gt;">
						<path id="&lt;Path&gt;" class="s9" d="m695.9 538.6c0.1 0 0.5 1.9-0.2 4.9-0.7 2.9-2.9 6.8-6.9 9.4-4 2.5-8.4 2.5-11.3 2.4-3-0.1-4.8-0.4-4.8-0.6 0-0.1 1.8-0.1 4.8-0.1 2.8-0.1 7.1-0.3 10.8-2.6 3.7-2.4 5.8-6 6.7-8.7 0.8-2.8 0.7-4.7 0.9-4.7z"/>
					</g>
				</g>
				<g id="&lt;Group&gt;">
					<g id="&lt;Group&gt;">
						<path id="&lt;Path&gt;" class="s9" d="m798.6 530.2c-0.1 0.2-3.2-0.7-6.3-3.3-3-2.6-4.4-5.6-4.2-5.7 0.3-0.2 2 2.4 4.9 4.9 2.9 2.4 5.7 3.8 5.6 4.1z"/>
					</g>
				</g>
			</g>
			<g id="&lt;Group&gt;">
				<path id="&lt;Path&gt;" class="s6" d="m766.6 299.1c4.2 0.3 8.2 2.8 10.1 6.5 1.2 2.4 1.7 5.2 2.5 7.8 0.8 2.6 2.2 5.2 4.6 6.4 2.2 1 4.7 0.7 7.1 1.2 5.5 1.1 9.7 7 9 12.6-0.1 0.8-0.3 1.6 0 2.3 0.3 0.5 0.7 0.8 1.2 1.1 3.2 1.9 7.4 1.6 10.3 3.9 1.9 1.6 2.8 4.1 3.1 6.5 0.7 4.7-0.2 9.6-2.6 13.7-0.9 1.6-2.1 3.1-3.7 4.2-2.2 1.4-4.9 1.9-7.5 2.1-8.9 0.6-18.3-1.4-24.9-7.3-8.8-7.8-22.8-37.3-24.3-48.9z"/>
			</g>
			<g id="&lt;Group&gt;">
				<g id="&lt;Group&gt;">
					<path id="&lt;Path&gt;" class="s8" d="m701.2 330.7l-31.4 15 22.3 94.4c0 0-13.2 38.9-17.7 60.4-4.4 21.4-4.4 21.4-4.4 21.4 45.1 30.7 91.5 26.8 129.6-12.5l-19.9-45.4 16.7-65.5-44.1-72.3-10.9-0.5z"/>
				</g>
				<g id="&lt;Group&gt;" style="opacity: .3">
					<g id="&lt;Group&gt;">
						<path id="&lt;Path&gt;" class="s10" d="m677.3 494.8c0.9-1.9 19.1-17.5 21-18.4 27.3-13.2 44-0.8 74.5 1.7 0.8 0 0 0.6 0.8 0.6 3.5 0.3 8.8-1.5 12.2-1l1.9 5.9c-20.5 8.2-44.4 1.1-65.6 7.3-6.2 1.8-12.2 4.7-18.6 5.8-1.8 0.3-3.8 0.5-5.1 1.9-0.7 0.7-1.1 1.7-1.6 2.6-1.6 2.3-4.4 3.3-7.2 3.7-2.9 0.5-6 0.4-8.5-1.2-2.5-1.5-5.1-6.2-3.8-8.9z"/>
					</g>
				</g>
				<g id="&lt;Group&gt;">
					<g id="&lt;Group&gt;">
						<path id="&lt;Path&gt;" class="s11" d="m673.9 487.1c-1.6 0.5-1.1 6.1 2.9 5.2 8.7-2 20.2-6.7 20.2-6.7l13.7-11.2 61.3 3.8-9.5-28.8c0 0-63.5 6-72.5 9.7-6.5 2.6-11.2 5.3-14.2 8.7"/>
					</g>
					<g id="&lt;Group&gt;">
						<path id="&lt;Path&gt;" class="s11" d="m675.8 467.8c0 0-1.5 1.7-2.4 3.4-0.8 1.6 1.6 3.8 1.6 3.8 0 0-5.4 1.7-3.5 4 1.9 2.2 2.6 2.4 2.6 2.4 0 0-4.5 3.3-3.5 5 0.9 1.7 3.3 0.7 3.3 0.7"/>
					</g>
					<g id="&lt;Group&gt;">
						<g id="&lt;Group&gt;">
							<path id="&lt;Path&gt;" class="s12" d="m673.4 487.4c-0.2-0.2 1.4-1.8 3.9-2.9 2.6-1 4.8-0.9 4.8-0.6 0.1 0.3-2 0.7-4.4 1.6-2.3 1-4.1 2.2-4.3 1.9z"/>
						</g>
					</g>
					<g id="&lt;Group&gt;">
						<g id="&lt;Group&gt;">
							<path id="&lt;Path&gt;" class="s12" d="m679.4 479c0 0.3-1.3 0.7-2.7 1.4-1.4 0.6-2.6 1.3-2.8 1-0.2-0.2 0.8-1.3 2.4-2 1.6-0.7 3-0.6 3.1-0.4z"/>
						</g>
					</g>
					<g id="&lt;Group&gt;">
						<g id="&lt;Group&gt;">
							<path id="&lt;Path&gt;" class="s12" d="m678.9 474.5c-0.1 0.2-0.3 0.2-0.6 0.3-0.3 0.1-0.8 0.3-1.3 0.4-1 0.1-1.9 0-1.9-0.2-0.1-0.3 0.7-0.7 1.8-0.9 0.5-0.1 1-0.1 1.4 0 0.4 0 0.7 0.3 0.6 0.4z"/>
						</g>
					</g>
				</g>
				<g id="&lt;Group&gt;">
					<path id="&lt;Path&gt;" class="s8" d="m752.3 326.2c0 0 26.7 0.7 37.1 21.1 5.2 10.2 18.7 45 23.4 59.7 3.2 9.9 13.9 59.9 1.8 64.8-15.4 6.4-42.5 7.3-42.5 7.3l-10-29c-1.4-4.7 1.2-9.6 5.8-11.2l8.3 1.8 9.4-2.9-6.4-58.5-9.1-11.4z"/>
				</g>
				<g id="&lt;Group&gt;" style="opacity: .3">
					<g id="&lt;Group&gt;">
						<path id="&lt;Path&gt;" class="s10" d="m727 349.5c1.3 4.6 0 11.2 0.5 15.3 2.4 16.4 3.4 33 2 49.5-0.1 0.9-0.2 1.8 0.1 2.6 0.3 0.8 0.8 1.5 1.3 2.1 3.3 4.5 4 10.3 3.3 15.8-0.8 5.4-2.9 10.6-5 15.7 0-4.4 0.3-11 0.7-15.4 0.1-0.9 0.5-0.3 0.6-1.2 0.2-5.3-0.6-10.2-4.3-14-0.7-0.8-1.6-1.4-2.1-2.4-0.4-0.8-0.5-1.8-0.6-2.8q-3.1-27.7-3.9-55.6c0-1.1 0-2.2 0.6-3 0.6-0.7 1.4-1 2.1-1.4 1.4-0.9 2.3-2.6 3.9-3.3"/>
					</g>
				</g>
				<g id="&lt;Group&gt;">
					<path id="&lt;Path&gt;" class="s8" d="m669.8 345.7c0 0-19.1 7.7-15 40 2 15.8 11.4 58.6 21.5 83.3 4.7 11.6 15.7 19.7 28.2 18.3 5.4-0.7 10.8 0.3 14.5-1.9 5.5-3.2 8.1-14.4 9.3-26.5 0.8-8.3 0.7-16.9 1.9-23.9 1.9-11.5-3.3-16.9-10-18.4l-26.4-5.6-1.7 13.9z"/>
				</g>
				<g id="&lt;Group&gt;">
					<g id="&lt;Group&gt;">
						<path id="&lt;Path&gt;" class="s6" d="m702.6 443c0 0 0.4 0.6 1.5 1.4 1 0.7 2.6 1.7 4.9 2 2.2 0.3 5 0 7.8-1 2.9-1.1 6-2.4 8.5-4.8 2.6-2.3 4.1-5.4 4.6-8.4 0.5-2.9 0-5.7-0.9-7.8-1.7-4.3-4.3-6-4.1-6.1 0-0.1 0.7 0.3 1.6 1.2 1 0.9 2.3 2.4 3.2 4.6 1 2.2 1.6 5.1 1.1 8.3-0.4 3.1-2 6.5-4.7 9-2.8 2.5-6 3.9-9 4.9-2.9 1-5.9 1.3-8.3 0.8-2.3-0.4-4-1.5-5-2.4-1-1-1.3-1.7-1.2-1.7z"/>
					</g>
				</g>
				<g id="&lt;Group&gt;">
					<g id="&lt;Group&gt;">
						<path id="&lt;Path&gt;" class="s6" d="m674.7 465c0.1 0 0.6 1.5 1.8 3.9 1.2 2.4 3.2 5.8 6.7 9.2 3.4 3.4 8.3 6.7 14.5 8.4 6.1 1.6 13.5 1.6 20.3-1.2 3.4-1.3 4.7-5 6-8.2 1.3-3.2 2.1-6.5 2.7-9.6 1.1-6.4 1.5-12.2 1.9-17 0.4-4.8 0.8-8.7 1-11.6q0.2-1.9 0.3-3.1 0.2-1.1 0.2-1.1 0.1 0 0.1 1.1-0.1 1.3-0.2 3.1c-0.1 2.9-0.4 6.8-0.6 11.6-0.4 4.9-0.6 10.7-1.8 17.1-0.5 3.2-1.4 6.6-2.6 9.9-0.7 1.7-1.4 3.3-2.3 4.9-0.9 1.7-2.5 3.2-4.3 3.9-7.1 2.8-14.6 2.8-21 1.1-6.3-1.7-11.4-5.2-14.8-8.7-3.4-3.6-5.4-7.1-6.5-9.6-0.6-1.3-0.9-2.3-1.1-3q-0.3-1-0.3-1.1z"/>
					</g>
				</g>
				<g id="&lt;Group&gt;">
					<g id="&lt;Group&gt;">
						<path id="&lt;Path&gt;" class="s6" d="m685 445.7c-0.2 0-0.1-2.1 0.1-5.4 0.2-3.3 0.6-7.9 1.1-12.9 0.3-2.5 0.5-4.9 0.8-7.1 0.3-2.2 0.9-4.3 2.1-5.6 1.1-1.4 2.5-2 3.4-2.2 1-0.2 1.5 0 1.5 0.1 0 0.1-0.5 0-1.4 0.3-0.8 0.3-2 0.9-2.9 2.2-2 2.6-1.9 7.4-2.4 12.4-0.5 5-1 9.6-1.4 12.9-0.4 3.3-0.8 5.3-0.9 5.3z"/>
					</g>
				</g>
				<g id="&lt;Group&gt;">
					<g id="&lt;Group&gt;">
						<path id="&lt;Path&gt;" class="s6" d="m675.9 348.7c0-0.1 0.8 0.1 2.1 0.7 1.3 0.7 3.1 2 4.7 4 1.7 2.1 3.2 4.9 4.3 8.2 1.1 3.3 1.8 7 2.7 10.8 1.7 7.7 3.1 14.7 4.2 19.8 0.5 2.5 0.8 4.6 1.1 6 0.2 1.4 0.3 2.2 0.3 2.2-0.1 0-0.3-0.7-0.7-2.1-0.4-1.4-0.9-3.4-1.5-6-1.2-5-2.8-12-4.4-19.7-0.9-3.8-1.6-7.5-2.6-10.7-1-3.3-2.4-6-4-8-3.1-4.1-6.4-5.1-6.2-5.2z"/>
					</g>
				</g>
				<g id="&lt;Group&gt;">
					<g id="&lt;Group&gt;">
						<path id="&lt;Path&gt;" class="s6" d="m796.5 476.4c0 0.1-0.6 0.2-1.7 0.3q-2 0.3-5 0.7c-4.5 0.6-10.5 1.3-17.7 2.2h-0.4l-0.1-0.3c-1.1-3.2-2.1-6.7-3.1-10.4-1.1-3.8-2.1-7.7-3.5-11.6q-0.8-2.3-1.7-4.5-0.4-1.1-0.9-2.2c-0.3-0.7-0.7-1.5-0.8-2.4-0.2-1.6-0.1-3.1 0-4.7 0.2-1.6 1.4-3 2.6-3.8 1.3-0.8 2.8-1.3 4.2-1.3 1.5 0 2.8 0.5 4 0.8 1.2 0.4 2.3 0.8 3.4 1 1.1 0.1 2.3 0.2 3.3 0.1 2.1-0.2 3.9-0.9 5.6-1.4 1.6-0.4 3.1-0.8 4.3-0.8 1.2-0.1 2.2 0.1 2.8 0.2q1 0.2 1 0.2c-0.1 0.2-1.4-0.2-3.7 0q-1.8 0.2-4.2 1c-1.7 0.5-3.5 1.3-5.7 1.5q-1.7 0.2-3.5 0c-1.2-0.2-2.4-0.6-3.6-0.9-1.2-0.4-2.4-0.8-3.7-0.8-1.2 0.1-2.5 0.5-3.6 1.2-1.1 0.7-2 1.8-2.2 3.2-0.1 1.4-0.1 2.9 0.1 4.4 0.1 0.7 0.3 1.3 0.7 2.1q0.4 1.1 0.9 2.2 0.9 2.2 1.7 4.6c1.4 3.9 2.4 7.9 3.4 11.6 1.1 3.7 2.1 7.2 3.1 10.4l-0.5-0.3c7.2-0.8 13.3-1.4 17.7-1.8q3.1-0.3 5-0.4c1.2-0.1 1.8-0.1 1.8-0.1z"/>
					</g>
				</g>
				<g id="&lt;Group&gt;">
					<g id="&lt;Group&gt;">
						<path id="&lt;Path&gt;" class="s6" d="m799.6 440.7c0.1-0.1 0.9 0 1.9 0.6 1.1 0.6 2.3 1.9 3.3 3.5 1.9 3.2 2.4 6.2 2.2 6.2-0.3 0.2-1.3-2.6-3.1-5.7-0.9-1.5-1.9-2.6-2.8-3.4-0.9-0.7-1.5-1.1-1.5-1.2z"/>
					</g>
				</g>
				<g id="&lt;Group&gt;">
					<g id="&lt;Group&gt;">
						<path id="&lt;Path&gt;" class="s6" d="m778.3 440.7c-0.1 0-0.2-1-0.2-2.7 0-1.8 0.1-4.3 0.5-7.4 0.6-6.3 2.8-14.7 3.9-24 1-9.4 0.1-18.1-2.1-23.9-2.1-5.8-4.8-8.7-4.6-8.8q0-0.1 0.5 0.4c0.3 0.4 0.8 0.9 1.3 1.6 1 1.4 2.4 3.6 3.5 6.5 2.5 5.9 3.5 14.8 2.4 24.3-0.5 4.7-1.4 9.2-2.2 13.2-0.8 4.1-1.5 7.7-2 10.8-0.4 3-0.7 5.6-0.8 7.3-0.1 1.7-0.1 2.7-0.2 2.7z"/>
					</g>
				</g>
				<g id="&lt;Group&gt;" style="opacity: .3">
					<g id="&lt;Group&gt;">
						<path id="&lt;Path&gt;" class="s10" d="m781.4 384.3q1.5 5.5 3.1 11.1c1.1 3.9 2.2 7.9 2.4 12 0.1 3.4-0.4 6.8-1 10.2-0.6 3.9-1.1 7.8-1.8 11.7-0.7 4 0.6 7.1-1.7 10.4l-4 0.7c0.6-17.2 7.3-39.4 3.2-56.1"/>
					</g>
				</g>
				<g id="&lt;Group&gt;">
					<g id="&lt;Group&gt;">
						<path id="&lt;Path&gt;" class="s6" d="m765.4 348.2c0.3-0.1 2 4.4 3.9 9.8 1.9 5.5 3.7 9.8 3.5 9.9-0.3 0.2-2.5-4-4.5-9.5-1.9-5.5-3.1-10.1-2.9-10.2z"/>
					</g>
				</g>
				<g id="&lt;Group&gt;" style="opacity: .3">
					<g id="&lt;Group&gt;">
						<path id="&lt;Path&gt;" class="s10" d="m695.1 407.9c-2.4-0.2-4.7 0.8-6.7 2.1-4.4 2.9-7.7 7.5-9.1 12.5-1.5 5.1-1.2 10.6 0.5 15.5 0.5 1.6 1.5 3.4 3.1 3.3 2 0 2.8-2.4 3.1-4.3q1.2-7.9 2.4-15.9c0.3-1.7 0.6-3.6 1.5-5.2 0.9-1.5 2.6-2.8 4.4-2.7q0.3-2.8 0.6-5.6"/>
					</g>
				</g>
				<g id="&lt;Group&gt;">
					<g id="&lt;Group&gt;">
						<path id="&lt;Path&gt;" class="s4" d="m691.2 385.4c0.1 0.1-2 0.4-5.2 1.4-3.1 1-7.4 2.7-12 5-4.5 2.3-8.5 4.6-11.3 6.4q-1.9 1.1-3.4 2c-0.8 0.5-1.3 0.8-1.3 0.7 0 0 0.4-0.3 1.1-0.9 0.8-0.5 1.9-1.3 3.3-2.2 2.8-1.9 6.8-4.3 11.4-6.6 4.5-2.3 8.9-3.9 12.1-4.8 1.6-0.5 3-0.8 3.9-0.9 0.9-0.1 1.4-0.2 1.4-0.1z"/>
					</g>
				</g>
				<g id="&lt;Group&gt;">
					<g id="&lt;Group&gt;">
						<path id="&lt;Path&gt;" class="s4" d="m694 397.1c0 0.1-0.5 0.2-1.4 0.5-0.9 0.3-2.2 0.7-3.8 1.3-3.2 1.1-7.6 2.8-12.2 5-4.7 2.2-8.7 4.6-11.5 6.5-1.5 0.9-2.6 1.7-3.3 2.2-0.8 0.6-1.2 0.9-1.3 0.9 0-0.1 0.4-0.4 1.1-1.1 0.7-0.6 1.8-1.4 3.2-2.4 2.8-2 6.8-4.4 11.5-6.7 4.7-2.2 9.1-3.8 12.4-4.8 1.6-0.5 2.9-0.9 3.8-1.1 1-0.2 1.5-0.3 1.5-0.3z"/>
					</g>
				</g>
				<g id="&lt;Group&gt;">
					<g id="&lt;Group&gt;">
						<path id="&lt;Path&gt;" class="s4" d="m798.9 371c0 0.1-1.1 0.3-3 0.8-1.8 0.4-4.3 1.1-6.9 2.2-2.7 1-5 2.1-6.7 3-1.7 0.9-2.7 1.5-2.7 1.4-0.1-0.1 0.9-0.8 2.5-1.8 1.6-1 3.9-2.2 6.6-3.2 2.7-1.1 5.3-1.7 7.1-2.1 1.9-0.3 3.1-0.4 3.1-0.3z"/>
					</g>
				</g>
				<g id="&lt;Group&gt;">
					<g id="&lt;Group&gt;">
						<path id="&lt;Path&gt;" class="s4" d="m805.2 385.6c0 0.1-1.3 0-3.4 0.1-2 0.2-4.8 0.7-7.8 1.7-6 2-10.4 4.8-10.5 4.6 0-0.1 1-0.8 2.8-1.9 1.8-1 4.4-2.3 7.5-3.3 3-1 5.9-1.5 8-1.5 1.1 0 1.9 0 2.5 0.1q0.9 0.1 0.9 0.2z"/>
					</g>
				</g>
			</g>
			<g id="&lt;Group&gt;">
				<g id="&lt;Group&gt;">
					<g id="&lt;Group&gt;">
						<g id="&lt;Group&gt;">
							<g id="&lt;Group&gt;">
								<g id="&lt;Group&gt;">
									<g id="&lt;Group&gt;">
										<path id="&lt;Path&gt;" class="s6" d="m759.2 231.8c7.3 3.9 10.8 13 9.9 18.7-0.4 2.8-1.5 5.7-0.7 8.4 0.6 2.4 2.5 4.2 4 6.2 4.9 6.7 4.8 16.5-0.1 23.1-4.9 6.7-14.3 9.5-22.1 6.8"/>
									</g>
								</g>
								<g id="&lt;Group&gt;">
									<g id="&lt;Group&gt;">
										<g id="&lt;Group&gt;">
											<g id="&lt;Group&gt;">
												<path id="&lt;Path&gt;" class="s6" d="m766.1 267.9c14.2-38.7-27.7-54.4-49.2-46.5-20.3 7.4-28.4 18.4-30.7 32.5-2.4 14.2-1.1 29.2 5.3 42 3.2 6.3 8.5 12.5 15.6 12.8"/>
											</g>
										</g>
									</g>
									<g id="&lt;Group&gt;">
										<g id="&lt;Group&gt;">
											<g id="&lt;Group&gt;">
												<g id="&lt;Group&gt;">
													<g id="&lt;Group&gt;">
														<g id="&lt;Group&gt;">
															<g id="&lt;Group&gt;">
																<g id="&lt;Group&gt;">
																	<g id="&lt;Group&gt;">
																		<g id="&lt;Group&gt;">
																			<g id="&lt;Group&gt;">
																				<g id="&lt;Group&gt;">
																					<g id="&lt;Group&gt;">
																						<g id="&lt;Group&gt;">
																							<g id="&lt;Group&gt;">
																								<g id="&lt;Group&gt;">
																									<path id="&lt;Path&gt;" class="s11" d="m709.5 343.9l-10-93.1c-0.4-3.7 2.1-7 5.7-7.6l36.7-12.3c11.8-2.2 20.9 12 22.6 23.9 1.8 13.3 3.6 29.6 2.8 39.7-1.7 20.2-16.9 23.9-16.9 23.9 0-0.1 1.2 17.7 2.2 34.2 0.2 2.8-2.5 4.9-5.1 4z"/>
																								</g>
																							</g>
																						</g>
																					</g>
																				</g>
																			</g>
																		</g>
																	</g>
																</g>
																<g id="&lt;Group&gt;">
																	<g id="&lt;Group&gt;">
																		<g id="&lt;Group&gt;">
																			<g id="&lt;Group&gt;">
																				<g id="&lt;Group&gt;">
																					<g id="&lt;Group&gt;">
																						<g id="&lt;Group&gt;">
																							<g id="&lt;Group&gt;">
																								<g id="&lt;Group&gt;">
																									<g id="&lt;Group&gt;">
																										<g id="&lt;Group&gt;">
																											<g id="&lt;Group&gt;">
																												<g id="&lt;Group&gt;">
																													<g id="&lt;Group&gt;">
																														<path id="&lt;Path&gt;" class="s6" d="m761 268.3c0.2 1.3-0.8 2.6-2.2 2.8-1.4 0.2-2.7-0.8-2.9-2.1-0.1-1.3 0.9-2.6 2.3-2.8 1.4-0.2 2.6 0.7 2.8 2.1z"/>
																													</g>
																												</g>
																											</g>
																										</g>
																									</g>
																								</g>
																							</g>
																						</g>
																					</g>
																				</g>
																			</g>
																		</g>
																	</g>
																</g>
																<g id="&lt;Group&gt;">
																	<g id="&lt;Group&gt;">
																		<g id="&lt;Group&gt;">
																			<g id="&lt;Group&gt;">
																				<g id="&lt;Group&gt;">
																					<g id="&lt;Group&gt;">
																						<g id="&lt;Group&gt;">
																							<g id="&lt;Group&gt;">
																								<g id="&lt;Group&gt;">
																									<g id="&lt;Group&gt;">
																										<g id="&lt;Group&gt;">
																											<g id="&lt;Group&gt;">
																												<g id="&lt;Group&gt;">
																													<g id="&lt;Group&gt;">
																														<path id="&lt;Path&gt;" class="s6" d="m734.8 270.3c0.2 1.3-0.8 2.6-2.2 2.8-1.4 0.2-2.7-0.8-2.8-2.1-0.2-1.4 0.8-2.6 2.2-2.8 1.4-0.2 2.7 0.7 2.8 2.1z"/>
																													</g>
																												</g>
																											</g>
																										</g>
																									</g>
																								</g>
																							</g>
																						</g>
																					</g>
																				</g>
																			</g>
																		</g>
																	</g>
																</g>
																<g id="&lt;Group&gt;">
																	<g id="&lt;Group&gt;">
																		<g id="&lt;Group&gt;">
																			<g id="&lt;Group&gt;">
																				<g id="&lt;Group&gt;">
																					<g id="&lt;Group&gt;">
																						<g id="&lt;Group&gt;">
																							<g id="&lt;Group&gt;">
																								<g id="&lt;Group&gt;">
																									<g id="&lt;Group&gt;">
																										<g id="&lt;Group&gt;">
																											<path id="&lt;Path&gt;" class="s6" d="m761.1 262.7c-0.2 0.3-2.3-0.9-5.1-0.6-2.7 0.3-4.6 1.9-4.9 1.6-0.2-0.1 0.1-0.7 0.9-1.5 0.8-0.7 2.2-1.5 3.9-1.7 1.7-0.2 3.2 0.3 4.1 0.9 0.9 0.5 1.3 1.1 1.1 1.3z"/>
																										</g>
																									</g>
																								</g>
																							</g>
																						</g>
																					</g>
																				</g>
																			</g>
																		</g>
																	</g>
																</g>
																<g id="&lt;Group&gt;">
																	<g id="&lt;Group&gt;">
																		<g id="&lt;Group&gt;">
																			<g id="&lt;Group&gt;">
																				<g id="&lt;Group&gt;">
																					<g id="&lt;Group&gt;">
																						<g id="&lt;Group&gt;">
																							<g id="&lt;Group&gt;">
																								<g id="&lt;Group&gt;">
																									<g id="&lt;Group&gt;">
																										<g id="&lt;Group&gt;">
																											<path id="&lt;Path&gt;" class="s6" d="m735 265.3c-0.3 0.4-2.4-0.9-5.1-0.7-2.8 0.1-4.7 1.7-5.1 1.4-0.1-0.1 0.2-0.8 1-1.5 0.8-0.7 2.3-1.4 4-1.5 1.7-0.1 3.2 0.4 4.1 1 0.9 0.6 1.2 1.2 1.1 1.3z"/>
																										</g>
																									</g>
																								</g>
																							</g>
																						</g>
																					</g>
																				</g>
																			</g>
																		</g>
																	</g>
																</g>
																<g id="&lt;Group&gt;">
																	<g id="&lt;Group&gt;">
																		<g id="&lt;Group&gt;">
																			<g id="&lt;Group&gt;">
																				<g id="&lt;Group&gt;">
																					<g id="&lt;Group&gt;">
																						<g id="&lt;Group&gt;">
																							<g id="&lt;Group&gt;">
																								<g id="&lt;Group&gt;">
																									<g id="&lt;Group&gt;">
																										<path id="&lt;Path&gt;" class="s6" d="m746.1 285.9c-0.1-0.2 1.6-0.6 4.4-1.2 0.7-0.1 1.3-0.3 1.4-0.8 0.1-0.5-0.2-1.2-0.6-2q-1.2-2.5-2.5-5.2c-3.5-7.5-6.1-13.6-5.8-13.7 0.3-0.2 3.4 5.7 6.9 13.2q1.2 2.7 2.4 5.2c0.3 0.8 0.8 1.7 0.6 2.8-0.2 0.5-0.7 0.9-1.1 1.1-0.5 0.1-0.9 0.2-1.2 0.2-2.8 0.4-4.5 0.5-4.5 0.4z"/>
																									</g>
																								</g>
																							</g>
																						</g>
																					</g>
																				</g>
																			</g>
																		</g>
																	</g>
																</g>
																<g id="&lt;Group&gt;">
																	<g id="&lt;Group&gt;">
																		<g id="&lt;Group&gt;">
																			<g id="&lt;Group&gt;">
																				<g id="&lt;Group&gt;">
																					<g id="&lt;Group&gt;">
																						<g id="&lt;Group&gt;">
																							<g id="&lt;Group&gt;">
																								<g id="&lt;Group&gt;">
																									<path id="&lt;Path&gt;" class="s12" d="m750.4 318.4c0 0-13.4 1.9-27.3-5.1 0 0 7.8 13.4 27.7 10z"/>
																								</g>
																							</g>
																						</g>
																					</g>
																				</g>
																			</g>
																		</g>
																	</g>
																</g>
																<g id="&lt;Group&gt;">
																	<g id="&lt;Group&gt;">
																		<g id="&lt;Group&gt;">
																			<g id="&lt;Group&gt;">
																				<g id="&lt;Group&gt;">
																					<g id="&lt;Group&gt;">
																						<g id="&lt;Group&gt;">
																							<g id="&lt;Group&gt;">
																								<g id="&lt;Group&gt;">
																									<path id="&lt;Path&gt;" class="s12" d="m745.4 292.6c-1.1-1.2-2.9-1.8-4.6-1.5-1.2 0.2-2.4 0.9-3 1.9-0.7 1.1-0.7 2.5 0 3.4 0.8 0.9 2.4 1.1 3.7 0.6 1.3-0.5 2.4-1.4 3.4-2.4 0.2-0.2 0.5-0.5 0.7-0.9 0.2-0.3 0.2-0.7-0.1-1"/>
																								</g>
																							</g>
																						</g>
																					</g>
																				</g>
																			</g>
																		</g>
																	</g>
																</g>
																<g id="&lt;Group&gt;">
																	<g id="&lt;Group&gt;">
																		<g id="&lt;Group&gt;">
																			<g id="&lt;Group&gt;">
																				<g id="&lt;Group&gt;">
																					<g id="&lt;Group&gt;">
																						<g id="&lt;Group&gt;">
																							<g id="&lt;Group&gt;">
																								<g id="&lt;Group&gt;">
																									<g id="&lt;Group&gt;">
																										<path id="&lt;Path&gt;" class="s6" d="m738.1 288.4c0.4 0 0.6 2.9 3.4 4.9 2.7 1.9 5.9 1.3 5.9 1.8 0.1 0.1-0.6 0.6-2 0.7-1.3 0.2-3.3-0.1-4.9-1.3-1.7-1.2-2.5-2.9-2.7-4.1-0.2-1.2 0.1-2 0.3-2z"/>
																									</g>
																								</g>
																							</g>
																						</g>
																					</g>
																				</g>
																			</g>
																		</g>
																	</g>
																</g>
															</g>
														</g>
													</g>
													<g id="&lt;Group&gt;">
														<g id="&lt;Group&gt;">
															<g id="&lt;Group&gt;">
																<g id="&lt;Group&gt;">
																	<g id="&lt;Group&gt;">
																		<g id="&lt;Group&gt;">
																			<g id="&lt;Group&gt;">
																				<g id="&lt;Group&gt;">
																					<g id="&lt;Group&gt;">
																						<path id="&lt;Path&gt;" class="s6" d="m735.3 261.2c-0.2 0.8-3 0.6-6.2 1.3-3.2 0.6-5.7 1.7-6.2 1.1-0.2-0.3 0.2-1.1 1.2-1.9 1-0.8 2.6-1.6 4.5-2 1.9-0.3 3.7-0.2 5 0.2 1.2 0.4 1.8 1 1.7 1.3z"/>
																					</g>
																				</g>
																			</g>
																		</g>
																	</g>
																</g>
															</g>
														</g>
													</g>
													<g id="&lt;Group&gt;">
														<g id="&lt;Group&gt;">
															<g id="&lt;Group&gt;">
																<g id="&lt;Group&gt;">
																	<g id="&lt;Group&gt;">
																		<g id="&lt;Group&gt;">
																			<g id="&lt;Group&gt;">
																				<g id="&lt;Group&gt;">
																					<g id="&lt;Group&gt;">
																						<path id="&lt;Path&gt;" class="s6" d="m760 255.7c-0.5 0.6-2.4 0.1-4.7 0.3-2.3 0-4.2 0.7-4.7 0.1-0.2-0.3 0-1 0.8-1.6 0.8-0.7 2.2-1.3 3.8-1.4 1.5 0 2.9 0.4 3.8 1 0.8 0.6 1.2 1.2 1 1.6z"/>
																					</g>
																				</g>
																			</g>
																		</g>
																	</g>
																</g>
															</g>
														</g>
													</g>
												</g>
											</g>
										</g>
									</g>
								</g>
								<g id="&lt;Group&gt;">
									<g id="&lt;Group&gt;">
										<g id="&lt;Group&gt;">
											<g id="&lt;Group&gt;">
												<g id="&lt;Group&gt;">
													<g id="&lt;Group&gt;">
														<g id="&lt;Group&gt;">
															<g id="&lt;Group&gt;">
																<g id="&lt;Group&gt;">
																	<path id="&lt;Path&gt;" class="s11" d="m704.9 276.8c-0.3-0.1-11.1-4-10.3 8 0.8 12 12.7 8.8 12.7 8.4 0-0.3-2.4-16.4-2.4-16.4z"/>
																</g>
															</g>
														</g>
													</g>
												</g>
											</g>
										</g>
									</g>
									<g id="&lt;Group&gt;">
										<g id="&lt;Group&gt;">
											<g id="&lt;Group&gt;">
												<g id="&lt;Group&gt;">
													<g id="&lt;Group&gt;">
														<g id="&lt;Group&gt;">
															<g id="&lt;Group&gt;">
																<g id="&lt;Group&gt;">
																	<g id="&lt;Group&gt;">
																		<path id="&lt;Path&gt;" class="s12" d="m703.3 288.9c-0.1 0-0.2 0.2-0.5 0.4-0.4 0.1-1 0.3-1.6 0.1-1.3-0.4-2.5-2.3-2.7-4.5-0.1-1.1 0.1-2.1 0.4-3 0.3-0.9 0.8-1.6 1.5-1.7 0.6-0.2 1.1 0.1 1.2 0.5 0.2 0.3 0.1 0.5 0.2 0.6 0 0 0.3-0.3 0.1-0.8 0-0.2-0.2-0.5-0.5-0.7-0.3-0.2-0.7-0.3-1.2-0.2-0.9 0.1-1.7 1-2 2-0.4 1-0.7 2.2-0.5 3.4 0.2 2.4 1.6 4.6 3.3 5 0.9 0.1 1.6-0.2 1.9-0.5 0.4-0.3 0.4-0.6 0.4-0.6z"/>
																	</g>
																</g>
															</g>
														</g>
													</g>
												</g>
											</g>
										</g>
									</g>
								</g>
								<g id="&lt;Group&gt;">
									<g id="&lt;Group&gt;">
										<path id="&lt;Path&gt;" class="s6" d="m745.4 224.6c6.9 2.9 10.7 16.3 8.5 23.5-2.2 7.2-9.4 11.2-16.6 13.4-7.2 2.1-14.4 2.9-21.8 1.4-0.1 4.9-2.7 10.1-7.3 11.7-6.1 2.2-12.8-3-14.7-9.2-1.9-6.3-0.3-12.9 1.3-19.2"/>
									</g>
								</g>
								<g id="&lt;Group&gt;">
									<g id="&lt;Group&gt;">
										<g id="&lt;Group&gt;">
											<path id="&lt;Path&gt;" class="s6" d="m695.8 272.1c0 0 0.3 0.3 1 0.8 0.7 0.4 1.6 1.1 2.9 1.8 1.3 0.8 2.9 1.5 4.9 2 1.9 0.4 4.2 0.4 6.3-0.6 2.1-1 3.6-2.8 4.5-4.6 0.9-1.7 1.2-3.5 1.4-5 0.1-1.5 0-2.6-0.1-3.5-0.1-0.8-0.2-1.2-0.3-1.2-0.1 0 0.2 1.8-0.1 4.7-0.2 1.4-0.6 3.1-1.5 4.8-0.8 1.6-2.2 3.2-4.2 4.1-1.9 1-4.1 1-5.9 0.6-1.9-0.3-3.5-1-4.7-1.7-2.6-1.3-4.1-2.3-4.2-2.2z"/>
										</g>
									</g>
								</g>
							</g>
							<g id="&lt;Group&gt;">
								<g id="&lt;Group&gt;">
									<g id="&lt;Group&gt;">
										<path id="&lt;Path&gt;" class="s9" d="m692.4 242.8c0 0 0.1-0.7 0.5-1.9 0.5-1.1 1.3-2.7 2.9-4.2 1.5-1.6 3.7-3.1 6.4-4.1 2.8-1 5.9-1.7 9.2-2.2 6.7-1.1 12.6-2.9 16.7-4.6 2-0.8 3.6-1.6 4.7-2.1q0.9-0.4 1.3-0.7 0.4-0.2 0.4-0.2 0 0-0.4 0.2-0.5 0.2-1.3 0.5c-1.2 0.6-2.8 1.3-4.8 2.1-4.2 1.5-10 3.3-16.7 4.4-3.3 0.5-6.5 1.2-9.2 2.2-2.7 1.1-5 2.7-6.5 4.3-1.6 1.6-2.4 3.2-2.8 4.4q-0.3 0.9-0.4 1.4-0.1 0.5 0 0.5z"/>
									</g>
								</g>
							</g>
						</g>
					</g>
					<g id="&lt;Group&gt;">
						<g id="&lt;Group&gt;">
							<path id="&lt;Path&gt;" class="s9" d="m689.9 288.5q0 0.1-0.6-0.4c-0.3-0.3-0.8-0.8-1.4-1.5-1.1-1.3-2.4-3.7-3-6.9-0.5-3.2-0.1-7.3 1.9-11.4 1-2 2.4-3.9 4-5.8 1.7-1.8 3.9-3.6 6.7-4l-0.4 0.7c-1.7-5-0.2-11.4 4.3-15.3 2.9-2.5 6.6-3.3 9.9-3.8 3.5-0.5 6.7-0.8 9.7-1.5 6.1-1.4 11.2-3.9 14.6-7.2 3.4-3.2 5-6.8 5.6-9.3 0.7-2.6 0.6-4.1 0.7-4.1q0 0 0.1 1.1c0 0.7-0.1 1.7-0.4 3.1-0.5 2.6-2.1 6.3-5.5 9.7-3.4 3.5-8.7 6.2-14.9 7.6-3 0.8-6.4 1.1-9.7 1.6-3.3 0.5-6.8 1.3-9.4 3.6-4.2 3.6-5.6 9.6-4 14.1l0.2 0.6-0.6 0.1c-2.5 0.4-4.6 2-6.2 3.7-1.6 1.7-2.9 3.6-3.9 5.5-2 3.9-2.5 7.8-2 10.9 0.4 3.1 1.6 5.4 2.6 6.8 1 1.5 1.8 2.1 1.7 2.1z"/>
						</g>
					</g>
				</g>
				<g id="&lt;Group&gt;">
					<g id="&lt;Group&gt;">
						<path id="&lt;Path&gt;" class="s6" d="m750.2 318.3c0 0 2.2 30.2 3.9 45.7 0.6 5.2 1.3 10.7 4.3 15 5 7 16 8.7 23 3.6 7-5 9-15.8 4.5-23.1-1.6-2.6-4-5.6-2.6-8.3 0.5-1.1 1.5-1.8 2.3-2.6 4.1-4.5 2.8-11.7 0.2-17.1-0.7-1.4-1.5-2.8-2.9-3.3-1.5-0.6-3.2 0-4.8-0.4-3.4-1-3.6-5.6-4.4-9-1.1-5.1-5.1-10.4-10.2-11.2 0 0-5 8.3-13.3 10.7z"/>
					</g>
					<g id="&lt;Group&gt;">
						<g id="&lt;Group&gt;">
							<path id="&lt;Path&gt;" class="s9" d="m785.6 346.7c-0.3 0 1.4-2.5 1.7-7.1 0.1-2.2-0.2-4.9-1.5-7.6-1.2-2.7-3.3-5.3-6.2-7.2-1.4-0.9-3-1.5-4.4-2.5-0.7-0.6-1.3-1.3-1.7-2.1-0.4-0.8-0.5-1.7-0.5-2.4-0.1-1.6 0-3-0.3-4.2-0.4-1.2-1.2-2.2-2-3-1.6-1.5-3.1-2.6-4-3.7-0.8-1-1.1-1.7-1-1.7 0.1 0 0.4 0.6 1.3 1.5 0.9 0.9 2.5 1.9 4.2 3.4 0.9 0.8 1.8 1.8 2.3 3.2 0.5 1.4 0.3 2.9 0.4 4.4 0.1 1.5 0.6 2.8 1.9 3.7 1.2 1 2.9 1.6 4.4 2.6 3.1 1.9 5.3 4.7 6.5 7.6 1.3 2.9 1.5 5.8 1.3 8.1-0.2 2.3-0.9 4.1-1.4 5.3-0.6 1.2-1 1.8-1 1.7z"/>
						</g>
					</g>
					<g id="&lt;Group&gt;">
						<g id="&lt;Group&gt;">
							<path id="&lt;Path&gt;" class="s9" d="m773.3 385.4c-0.1-0.1 0.9-0.7 2.4-2.1 1.5-1.4 3.4-3.8 4.6-7.2 1.1-3.4 1.4-8-0.6-12.4-2-4.4-6-8.1-9.8-12.3-1.9-2.2-3.6-4.5-4.7-7-1.1-2.5-1.6-5.2-1.3-7.7 0.3-2.5 1-4.8 1.4-6.9 0.3-2.1 0.3-4.1-0.1-5.9-0.6-3.5-2.3-6.1-3.6-7.7-1.3-1.6-2.2-2.3-2.2-2.3q0.1-0.1 0.8 0.4c0.4 0.3 1 0.9 1.7 1.6 1.4 1.6 3.3 4.2 4.1 7.9 0.4 1.8 0.5 4 0.1 6.2-0.3 2.2-1 4.4-1.3 6.8-0.2 2.3 0.3 4.8 1.4 7.2 1 2.4 2.7 4.6 4.5 6.7 3.7 4.2 7.8 7.9 9.9 12.6 2.1 4.7 1.7 9.5 0.4 13-1.3 3.6-3.4 6-5 7.3q-1.2 1.1-2 1.4-0.7 0.5-0.7 0.4z"/>
						</g>
					</g>
				</g>
			</g>
			<g id="&lt;Group&gt;">
				<g id="&lt;Group&gt;">
					<path id="&lt;Path&gt;" class="s11" d="m693.4 416.5l7.7-73.5 21.9 9 1.7 74.9c0 0-7.2 10.6-19 6-11.8-4.5-12.3-16.4-12.3-16.4z"/>
				</g>
				<g id="&lt;Group&gt;">
					<path id="&lt;Path&gt;" class="s6" d="m699.6 278.6l40.7 36.8-7.9 26.9-3 0.9-35.4-37.4 2.6-26.4z"/>
				</g>
				<g id="&lt;Group&gt;">
					<path id="&lt;Path&gt;" class="s9" d="m696.6 279.4l40.7 36.8-7.9 27-38.4-36.5z"/>
				</g>
				<g id="&lt;Group&gt;">
					<path id="&lt;Path&gt;" class="s11" d="m723.9 354.4c0 0 4.3-4.4 4.2-10 0-5.6-1.3-19-1.3-19 0 0 7.4-14.9 7.2-16.9-0.1-2-0.5-2-3.1-1.2-2.5 0.7-10.7 14.4-10.7 14.4l-2.5-10.3c0 0 6.8-10.6 7.4-12 0.5-1.5 1.4-2.7-0.3-2.9-1.6-0.2-14.2 11.7-14.2 11.7l0.8 11.2c0 0-0.3 0.9-2-0.7-1.8-1.6-1.2-14.9-1.2-14.9 0 0 4.4-7.8 4.3-9-0.1-1.1 0.8-2.3 0-4.3-0.8-1.9-3.3 0.3-3.3 0.3l-8.4 10.7-2.8-10.8c0 0 0.2-2.3-2.8-2.3l0.7 34.8 7.1 26.9z"/>
				</g>
				<g id="&lt;Group&gt;">
					<g id="&lt;Group&gt;">
						<path id="&lt;Path&gt;" class="s12" d="m724.7 426.9c0 0 0-0.5 0-1.3q-0.1-1.4-0.2-3.9c-0.1-3.4-0.3-8.3-0.4-14.6-0.4-12.6-0.8-30.7-1.4-52.6v-0.2l0.2-0.2c1.7-1.4 3.2-3.4 4.1-5.6 0.9-2.2 1-4.6 0.9-7.2-0.2-5.1-0.8-10.4-1.4-15.8v-0.2l0.1-0.1q2-4.3 4.1-8.8 1-2.2 1.9-4.6 0.5-1.1 0.9-2.3l0.1-0.6c0.1-0.2 0.1-0.3 0.1-0.5 0-0.4-0.1-0.8-0.2-1 0.1-0.3-1.1 0-1.8 0.2-0.5 0.2-0.6 0.3-1 0.5q-0.4 0.4-0.9 0.8c-1.1 1.3-2.1 2.7-3.1 4.1-2.1 2.8-4 5.9-5.8 8.9l-0.7 1.1-0.3-1.2c-0.8-3.3-1.6-6.7-2.5-10.3v-0.2l0.1-0.2c1.1-1.7 2.3-3.5 3.4-5.4 1.3-2.2 2.8-4.4 3.9-6.5 0.2-0.6 0.5-1.2 0.6-1.7 0.1-0.3 0.1-0.4 0.1-0.4 0 0-0.4-0.1-0.5-0.1-0.1 0-0.4 0.2-0.6 0.3-0.3 0.2-0.5 0.4-0.8 0.5q-0.7 0.5-1.5 1.1c-3.8 3.1-7.4 6.4-11 9.7l0.2-0.4q0.4 5.7 0.8 11.2v0.1c-0.2 0.6-0.7 0.7-1 0.6-0.3 0-0.5-0.1-0.7-0.2q-0.6-0.3-1-0.7c-0.8-0.7-0.9-1.6-1.1-2.3-0.2-1.5-0.3-3-0.4-4.5-0.1-2.9-0.1-5.8 0.1-8.6v-0.1-0.1c1.5-2.8 3.1-5.6 4.1-8.3 0.1-0.1 0.1-0.3 0.1-0.4 0.1-0.1 0-0.4 0.1-0.6 0-0.4 0.1-0.8 0.2-1.2 0.1-0.7 0.1-1.3-0.1-2-0.2-0.7-0.4-1-1-0.9-0.5 0.1-1.2 0.5-1.6 0.9v-0.1q-4.4 5.6-8.4 10.7l-0.6 0.7-0.2-0.8q-1.4-5.6-2.8-10.8v-0.1c0-0.6-0.3-1.2-0.7-1.5-0.5-0.3-1.1-0.4-1.7-0.4l0.4-0.4c0.2 14.1 0.4 25.9 0.5 34.8v-0.1c1.6 6.4 2.8 11.4 3.6 14.8q0.6 2.5 0.9 3.8c0.2 0.9 0.3 1.3 0.3 1.3 0 0-0.2-0.4-0.4-1.2q-0.4-1.4-1-3.8c-0.9-3.4-2.2-8.4-3.9-14.8-0.2-8.9-0.5-20.7-0.8-34.8v-0.4h0.4c0.7 0 1.5 0.1 2.1 0.6 0.7 0.4 1.2 1.2 1.1 2.1v-0.1q1.4 5.2 2.8 10.8l-0.7-0.2q4-5.1 8.4-10.7v-0.1c0.7-0.5 1.3-1 2.2-1.1 0.4-0.1 1 0 1.4 0.4 0.4 0.4 0.5 0.8 0.6 1.2 0.3 0.8 0.3 1.6 0.1 2.4-0.1 0.4-0.1 0.8-0.2 1.1 0 0.2 0 0.3 0 0.5 0 0.3-0.1 0.5-0.2 0.7-1.1 3-2.6 5.6-4.1 8.4v-0.2c-0.1 2.8-0.1 5.7 0 8.6 0.1 1.4 0.2 2.9 0.4 4.3 0.2 0.7 0.4 1.4 0.8 1.7q0.4 0.4 0.8 0.6c0.1 0.1 0.2 0.1 0.3 0.1 0 0 0 0.1 0.1 0.1v0.1h0.1c0.2 0.1-0.3-0.1-0.3-0.1v0.2q-0.4-5.5-0.9-11.1v-0.3l0.2-0.2c3.6-3.3 7.2-6.6 11.1-9.7q0.7-0.6 1.5-1.2c0.3-0.1 0.5-0.3 0.8-0.5 0.3-0.1 0.6-0.3 1.2-0.4 0.4 0 0.7 0 1.2 0.4 0.5 0.5 0.3 1.1 0.2 1.4-0.2 0.7-0.4 1.2-0.7 1.8-1.2 2.4-2.5 4.4-3.9 6.6-1.1 1.9-2.3 3.8-3.4 5.5l0.1-0.4c0.8 3.5 1.6 7 2.4 10.2l-0.9-0.1c1.8-3.1 3.8-6.1 5.8-9 1-1.4 2.1-2.9 3.3-4.2q0.4-0.5 1-0.9c0.3-0.3 1-0.6 1.3-0.7 0.4-0.1 0.9-0.2 1.3-0.3 0.3 0 0.5-0.1 0.9 0 0.3 0 0.7 0.3 0.8 0.6 0.3 0.6 0.3 1 0.3 1.5 0 0.2 0 0.5-0.1 0.7l-0.1 0.7q-0.4 1.2-0.9 2.4-1 2.4-2 4.6-2.1 4.6-4.2 8.8l0.1-0.2c0.6 5.4 1.1 10.7 1.3 15.9 0.1 2.5 0 5.2-1 7.6-1 2.3-2.5 4.4-4.4 5.9l0.2-0.3c0.4 21.9 0.7 39.9 1 52.6 0.1 6.3 0.1 11.2 0.2 14.6q0 2.5 0 3.9c0 0.8-0.1 1.3-0.1 1.3z"/>
					</g>
				</g>
				<g id="&lt;Group&gt;">
					<g id="&lt;Group&gt;">
						<path id="&lt;Path&gt;" class="s12" d="m702.3 320.4c-0.3 0-0.8-4.3-1.2-9.5-0.3-5.3-0.4-9.6-0.1-9.6 0.3 0 0.8 4.2 1.2 9.5 0.3 5.3 0.4 9.6 0.1 9.6z"/>
					</g>
				</g>
			</g>
		</g>
	</g>
	<g id="Plant">
		<g id="&lt;Group&gt;">
			<g id="&lt;Group&gt;">
				<g id="&lt;Group&gt;">
					<path id="&lt;Path&gt;" class="s8" d="m231.8 730c26.3-27 67.6-38.3 104-28.5-31.7 21.1-67.2 32.5-105.2 32.8"/>
				</g>
			</g>
			<g id="&lt;Group&gt;">
				<g id="&lt;Group&gt;">
					<g id="&lt;Group&gt;">
						<path id="&lt;Path&gt;" class="s8" d="m267.1 605.1c-4.4-30.6 7.5-65.1 30.5-87.4 0.7 30.4-12.1 64.6-30.5 87.4z"/>
					</g>
				</g>
				<g id="&lt;Group&gt;">
					<g id="&lt;Group&gt;">
						<path id="&lt;Path&gt;" class="s8" d="m248.7 663c16.4-31.3 43.2-56.9 75.1-71.8-9.5 35.3-39.7 64.1-75.4 72.1"/>
					</g>
				</g>
				<g id="&lt;Group&gt;">
					<g id="&lt;Group&gt;">
						<path id="&lt;Path&gt;" class="s8" d="m244.9 674.2c18.5 0.5 37.2-0.2 55.1-4.9 17.9-4.7 35.1-13.8 47-28-36 0-71.9 11-101.8 31.1"/>
					</g>
				</g>
				<g id="&lt;Group&gt;">
					<g id="&lt;Group&gt;">
						<path id="&lt;Path&gt;" class="s8" d="m254.3 637.4c-9.4-35.2-24.9-59.6-52.6-79.3-2 17.1 2.2 34.9 11.7 49.3 9.5 14.4 24.3 25.2 40.9 30z"/>
					</g>
				</g>
				<g id="&lt;Group&gt;">
					<g id="&lt;Group&gt;">
						<path id="&lt;Path&gt;" class="s8" d="m184.5 698.1c-0.5-20.5 12.7-40.6 31.6-48.3-1.5 18.2-15.8 39.2-31.6 48.3z"/>
					</g>
				</g>
				<g id="&lt;Group&gt;">
					<g id="&lt;Group&gt;">
						<path id="&lt;Path&gt;" class="s8" d="m175.6 668.4c-2.1-29.4-23-56.6-50.8-66.2 6.3 29.4 23.4 53.9 50.8 66.2z"/>
					</g>
				</g>
				<g id="&lt;Group&gt;">
					<g id="&lt;Group&gt;">
						<path id="&lt;Path&gt;" class="s8" d="m188.9 721.1c-6.5-9.4-17.1-15.2-28.2-18.1-11-2.8-22.5-3.1-33.9-3.3 15.4 16.9 38.5 26.5 61.3 25.5"/>
					</g>
				</g>
				<g id="&lt;Group&gt;">
					<g id="&lt;Group&gt;">
						<path id="&lt;Path&gt;" class="s8" d="m202.2 796.1c-20.6-6.3-43.4-4.7-62.9 4.5-19.4 9.2-35.1 25.9-43.2 45.8 38.5-7.4 76.5-24.5 106.1-50.3z"/>
					</g>
				</g>
				<g id="&lt;Group&gt;">
					<g id="&lt;Group&gt;">
						<path id="&lt;Path&gt;" class="s8" d="m244.5 770c-6.4 19-5.2 41.8 9 58.1 5.8-19.4 2.4-41.3-9-58.1z"/>
					</g>
				</g>
				<g id="&lt;Group&gt;">
					<g id="&lt;Group&gt;">
						<path id="&lt;Path&gt;" class="s8" d="m269.5 759.5c1.7 24.3 17.3 47.2 39.3 57.8 1.1 0.5 2.3 1 3.5 0.6 1.7-0.7 1.8-3.1 1.6-5-2.8-24.2-20.7-47.7-44.4-53.4z"/>
					</g>
				</g>
				<g id="&lt;Group&gt;">
					<g id="&lt;Group&gt;">
						<path id="&lt;Path&gt;" class="s8" d="m285.8 757.1c10.8 11.7 26.6 18.6 42.5 18.7 16 0.1 31.8-6.7 42.8-18.3-27.1-3-58.4-5-85.3-0.4z"/>
					</g>
				</g>
				<g id="&lt;Group&gt;">
					<g id="&lt;Group&gt;">
						<g id="&lt;Group&gt;">
							<g id="&lt;Group&gt;">
								<path id="&lt;Path&gt;" class="s6" d="m289.8 540.3q0.1 0-0.2 0.8-0.3 0.9-0.8 2.3c-0.8 2.1-1.9 5-3.3 8.8-1.5 3.8-3.1 8.5-5.1 13.9q-1.5 4.1-3.1 8.7-1.6 4.7-3.4 9.8c-4.8 13.7-10.2 30.2-15.9 48.6-5.7 18.4-11.6 38.6-17.4 60-5.8 21.5-10.9 42-15.3 60.7-4.2 18.8-7.8 35.7-10.4 50q-1.1 5.4-2 10.2-0.8 4.9-1.5 9.2c-1 5.6-1.8 10.5-2.4 14.6-0.6 4-1.1 7.1-1.4 9.2q-0.3 1.6-0.4 2.4-0.2 0.9-0.2 0.9 0-0.1 0.1-0.9 0.1-0.9 0.3-2.4c0.3-2.2 0.7-5.3 1.2-9.3 0.5-4 1.3-8.9 2.2-14.6q0.7-4.3 1.5-9.2 0.9-4.8 1.8-10.2c2.6-14.3 6.1-31.3 10.3-50.1 4.3-18.7 9.4-39.3 15.2-60.7 5.8-21.4 11.8-41.7 17.5-60.1 5.8-18.4 11.2-34.8 16.1-48.5q1.8-5.2 3.4-9.8 1.8-4.6 3.3-8.7c2-5.4 3.7-10.1 5.2-13.9 1.5-3.7 2.7-6.6 3.5-8.7q0.6-1.4 0.9-2.2 0.3-0.8 0.3-0.8z"/>
							</g>
						</g>
					</g>
					<g id="&lt;Group&gt;">
						<g id="&lt;Group&gt;">
							<g id="&lt;Group&gt;">
								<path id="&lt;Path&gt;" class="s6" d="m140.9 617.9q0.1 0 0.5 0.4 0.5 0.5 1.3 1.4c1.1 1.2 2.8 3 4.8 5.4 4.1 4.7 9.9 11.8 16 21.3 6.1 9.4 12.3 21.4 16.7 35.7 4.4 14.2 7.2 30.3 10 47.2 5.5 33.8 12.3 64.1 17.2 86 2.4 10.9 4.4 19.7 5.8 25.9q1 4.6 1.6 7.1 0.2 1.1 0.4 1.8 0.1 0.7 0.1 0.7-0.1 0-0.2-0.7-0.2-0.6-0.5-1.8-0.6-2.5-1.8-7c-1.4-6.2-3.6-15-6.2-25.8-5-21.9-11.9-52.2-17.4-86-2.8-16.9-5.5-33-9.9-47.2-4.3-14.1-10.4-26.1-16.4-35.6-6-9.4-11.7-16.5-15.7-21.4-2-2.4-3.6-4.2-4.7-5.5q-0.7-0.9-1.2-1.4-0.4-0.5-0.4-0.5z"/>
							</g>
						</g>
					</g>
					<g id="&lt;Group&gt;">
						<g id="&lt;Group&gt;">
							<g id="&lt;Group&gt;">
								<path id="&lt;Path&gt;" class="s6" d="m293.9 755.9q0 0.1-1 0.2-1.1 0.1-2.8 0.3-0.9 0.1-2 0.2-1.1 0.2-2.4 0.4c-1.7 0.2-3.7 0.5-5.8 0.9q-1.7 0.4-3.4 0.7-1.7 0.4-3.6 0.9c-2.5 0.6-5.1 1.5-7.9 2.3-5.4 1.9-11.3 4.4-17.1 7.6-5.9 3.2-11 7-15.4 10.7-2.2 1.9-4.2 3.7-5.9 5.7-1.9 1.8-3.3 3.7-4.7 5.4-1.5 1.6-2.5 3.3-3.5 4.7-1 1.4-1.7 2.7-2.3 3.8q-0.9 1.4-1.5 2.4-0.5 0.9-0.5 0.8-0.1 0 0.3-0.9 0.5-1 1.3-2.5c0.6-1.1 1.3-2.4 2.2-3.9 1-1.4 2-3.2 3.4-4.9 1.4-1.7 2.8-3.7 4.6-5.5 1.7-2 3.8-3.8 5.9-5.8 4.5-3.8 9.7-7.6 15.6-10.9 5.9-3.2 11.8-5.7 17.3-7.6 2.8-0.8 5.4-1.7 8-2.2q1.9-0.5 3.6-0.9 1.8-0.3 3.4-0.6c2.2-0.4 4.2-0.6 5.9-0.8q1.3-0.2 2.4-0.3 1.1-0.1 2.1-0.1 1.7-0.1 2.8-0.1 1 0 1 0z"/>
							</g>
						</g>
					</g>
				</g>
				<g id="&lt;Group&gt;">
					<g id="&lt;Group&gt;">
						<g id="&lt;Group&gt;">
							<path id="&lt;Path&gt;" class="s6" d="m301.6 618.5c0.1 0.1-0.6 0.7-1.9 1.9q-2.3 1.9-5.6 4.8c-4.8 4.1-11.4 9.6-18.7 15.7-7.3 6.1-14 11.5-18.8 15.5q-3.5 2.7-5.8 4.5c-1.4 1.1-2.2 1.7-2.2 1.6-0.1 0 0.6-0.7 1.9-1.9q2.2-1.9 5.6-4.8c4.7-4.1 11.3-9.6 18.7-15.7 7.3-6.1 13.9-11.5 18.8-15.4q3.5-2.8 5.8-4.6c1.4-1.1 2.2-1.6 2.2-1.6z"/>
						</g>
					</g>
				</g>
				<g id="&lt;Group&gt;">
					<g id="&lt;Group&gt;">
						<g id="&lt;Group&gt;">
							<path id="&lt;Path&gt;" class="s6" d="m308.3 654.4c0.1 0.3-14.2 4.7-31.8 9.9-17.7 5.2-32 9.2-32.1 9-0.1-0.3 14.1-4.8 31.8-10 17.6-5.2 32-9.2 32.1-8.9z"/>
						</g>
					</g>
				</g>
				<g id="&lt;Group&gt;">
					<g id="&lt;Group&gt;">
						<g id="&lt;Group&gt;">
							<path id="&lt;Path&gt;" class="s6" d="m255.7 640.1c0 0-0.6-0.7-1.5-2q-1.5-2.3-3.7-5.8c-3.2-4.8-7.7-11.3-13.1-18.3-5.3-7-10.5-13.1-14.2-17.5q-2.7-3-4.6-5.1c-1-1.2-1.6-1.9-1.5-2 0 0 0.7 0.6 1.8 1.7 1.2 1.1 2.8 2.8 4.8 4.9 3.9 4.3 9.2 10.3 14.6 17.3 5.3 7.1 9.8 13.7 12.8 18.7 1.5 2.4 2.7 4.4 3.5 5.9 0.8 1.4 1.2 2.2 1.1 2.2z"/>
						</g>
					</g>
				</g>
				<g id="&lt;Group&gt;">
					<g id="&lt;Group&gt;">
						<g id="&lt;Group&gt;">
							<path id="&lt;Path&gt;" class="s6" d="m206.3 660c0.1 0.1-1.2 2.2-3.4 5.5-2.1 3.3-5 8-8 13.2-2.9 5.3-5.5 10.2-7.3 13.7-1.7 3.5-2.8 5.7-3 5.7-0.1-0.1 0.8-2.4 2.4-6 1.6-3.7 4-8.6 7-13.9 3-5.2 6-9.9 8.3-13.1 2.3-3.3 3.9-5.2 4-5.1z"/>
						</g>
					</g>
				</g>
				<g id="&lt;Group&gt;">
					<g id="&lt;Group&gt;">
						<g id="&lt;Group&gt;">
							<path id="&lt;Path&gt;" class="s6" d="m189.4 722.1c-0.1 0.1-2.8-1.2-7.3-3.2-4.4-2-10.6-4.6-17.6-7.1-7.1-2.5-13.5-4.3-18.3-5.5-4.7-1.2-7.6-1.9-7.6-2 0-0.1 0.8 0 2.1 0.2 1.4 0.2 3.3 0.6 5.7 1.1 4.8 1 11.3 2.7 18.4 5.2 7.1 2.5 13.3 5.2 17.6 7.4 2.2 1.1 4 2 5.2 2.7 1.2 0.7 1.8 1.1 1.8 1.2z"/>
						</g>
					</g>
				</g>
				<g id="&lt;Group&gt;">
					<g id="&lt;Group&gt;">
						<g id="&lt;Group&gt;">
							<path id="&lt;Path&gt;" class="s6" d="m202.7 796.2q0 0.1-0.9 0.3-1 0.3-2.6 0.7c-2.4 0.5-5.6 1.3-9.4 2.2-8 1.8-19.1 4.1-31 8.1-11.8 4-21.9 9.2-28.8 13.6-3.4 2.2-6.1 4.1-7.9 5.5-1.9 1.4-2.9 2.2-2.9 2.1q0 0 0.6-0.7c0.5-0.4 1.1-1 2-1.7 1.7-1.5 4.4-3.6 7.8-5.8 6.8-4.6 17-9.9 28.9-14 11.9-4 23.1-6.2 31.1-7.9 3.9-0.7 7.1-1.4 9.6-1.8 2.2-0.4 3.5-0.7 3.5-0.6z"/>
						</g>
					</g>
				</g>
				<g id="&lt;Group&gt;">
					<g id="&lt;Group&gt;">
						<g id="&lt;Group&gt;">
							<path id="&lt;Path&gt;" class="s6" d="m250.8 814.5c-0.3 0-1.9-9.9-3.8-22.3-1.8-12.4-3-22.4-2.7-22.5 0.3 0 2 10 3.8 22.4 1.8 12.3 3 22.4 2.7 22.4z"/>
						</g>
					</g>
				</g>
				<g id="&lt;Group&gt;">
					<g id="&lt;Group&gt;">
						<g id="&lt;Group&gt;">
							<path id="&lt;Path&gt;" class="s6" d="m301 796.3c-0.2 0.1-1.8-2-4.6-5.4-2.7-3.3-6.4-8-10.7-13-4.2-5.1-8.1-9.6-11-12.8-2.9-3.3-4.6-5.3-4.5-5.4 0-0.1 0.6 0.4 1.4 1.2 0.9 0.9 2.1 2.1 3.6 3.7 3 3.1 7.1 7.5 11.3 12.6 4.3 5.1 8 9.8 10.5 13.3 1.3 1.7 2.3 3.2 3 4.2 0.7 1 1 1.6 1 1.6z"/>
						</g>
					</g>
				</g>
			</g>
			<g id="&lt;Group&gt;">
				<g id="&lt;Group&gt;">
					<path id="&lt;Path&gt;" class="s9" d="m168.3 842.8v24.8h6.2l22 69.5h48.8l21.4-68.8 8.2-0.7v-24.8z"/>
				</g>
			</g>
			<g id="&lt;Group&gt;">
				<g id="&lt;Group&gt;">
					<g id="&lt;Group&gt;">
						<path id="&lt;Path&gt;" class="s6" d="m270.8 868.3c0 0.2-21.6 0.5-48.2 0.5-26.6 0-48.1-0.3-48.1-0.5 0-0.3 21.5-0.6 48.1-0.6 26.6 0 48.2 0.3 48.2 0.6z"/>
					</g>
				</g>
			</g>
			<g id="&lt;Group&gt;">
				<g id="&lt;Group&gt;">
					<g id="&lt;Group&gt;">
						<path id="&lt;Path&gt;" class="s6" d="m305.9 708.9c0 0.1-1.1 0.4-3.1 0.9-2.2 0.5-5.1 1.2-8.6 2-7.2 1.8-17.1 4.5-27.9 8.1-10.8 3.7-20.3 7.5-27.1 10.4-3.3 1.5-6 2.7-8.1 3.6-1.9 0.8-3 1.3-3 1.2 0-0.1 1-0.6 2.8-1.6 1.9-1 4.6-2.3 8-3.8 6.7-3.1 16.3-7.1 27.1-10.7 10.8-3.7 20.8-6.3 28-7.9 3.7-0.8 6.6-1.4 8.7-1.7 2.1-0.4 3.2-0.6 3.2-0.5z"/>
					</g>
				</g>
			</g>
			<g id="&lt;Group&gt;">
				<g id="&lt;Group&gt;">
					<g id="&lt;Group&gt;">
						<path id="&lt;Path&gt;" class="s4" d="m254.6 906.8c0 0.3-15.1 0.6-33.8 0.6-18.7 0-33.8-0.3-33.8-0.6 0-0.2 15.1-0.5 33.8-0.5 18.7 0 33.8 0.3 33.8 0.5z"/>
					</g>
				</g>
			</g>
			<g id="&lt;Group&gt;">
				<g id="&lt;Group&gt;">
					<g id="&lt;Group&gt;">
						<path id="&lt;Path&gt;" class="s4" d="m256.5 901.1c0 0.3-16.1 0.5-35.8 0.5-19.8 0-35.8-0.2-35.8-0.5 0-0.3 16-0.5 35.8-0.5 19.7 0 35.8 0.2 35.8 0.5z"/>
					</g>
				</g>
			</g>
		</g>
	</g>
	<g id="Speech Bubble">
		<g id="&lt;Group&gt;">
			<g id="&lt;Group&gt;">
				<g id="&lt;Group&gt;">
					<g id="&lt;Group&gt;">
						<g id="&lt;Group&gt;">
							<path id="&lt;Path&gt;" class="s3" d="m794.1 281l12.3-21.7c-5.5-8.8-8.6-19.2-8.6-30.4 0-32 26-58 58-58 32 0 58 26 58 58 0 32.1-26 58-58 58-13.4 0-25.7-4.5-35.5-12.1z"/>
						</g>
						<g id="&lt;Group&gt;">
							<g id="&lt;Group&gt;">
								<path id="&lt;Path&gt;" class="s6" d="m794.1 281c1.8-0.5 9.7-2.4 26.2-6.5l-0.2 0.5q0 0 0-0.1c-0.1-0.1-0.1-0.2 0-0.3 0.1-0.1 0.3-0.1 0.4 0 6.5 5 15.9 9.9 27.6 11.4 2.9 0.4 6 0.6 9.1 0.5 1.6-0.1 3.2-0.2 4.8-0.3q2.3-0.4 4.8-0.8c6.5-1.3 13.1-3.8 19.3-7.6 6.2-3.9 11.9-9.1 16.4-15.4 4.6-6.4 8.1-14 9.7-22.2 1.6-8.1 1.4-16.9-0.7-25.4-2.2-8.4-6.2-16.7-12.3-23.5-6.1-6.9-13.7-12.5-22-15.7-8.3-3.3-17.2-4.6-25.6-4-8.5 0.6-16.6 3-23.6 6.9-7 3.9-12.9 9.1-17.4 14.9-4.6 5.8-7.8 12.2-9.9 18.5-2 6.4-2.5 12.8-2.5 18.7 0.3 11.9 4.2 21.6 8.4 28.6q0.1 0.1 0 0.2c-7.9 13.6-11.6 20-12.5 21.6 0.8-1.6 4.4-8.1 12.1-21.8v0.2c-4.4-6.9-8.4-16.8-8.8-28.8 0-6 0.6-12.4 2.6-18.9 2-6.5 5.2-13 9.9-18.9 4.6-5.9 10.6-11.2 17.7-15.1 7-4 15.3-6.5 23.9-7.1 8.6-0.6 17.6 0.7 26.1 4 8.5 3.3 16.2 9 22.4 16 6.2 6.9 10.3 15.3 12.5 24 2.2 8.6 2.3 17.5 0.7 25.8-1.7 8.4-5.2 16.1-9.9 22.5-4.6 6.5-10.5 11.8-16.7 15.7-6.3 3.9-13.1 6.4-19.6 7.6q-2.5 0.4-5 0.8c-1.6 0.1-3.2 0.2-4.8 0.2-3.2 0.2-6.2 0-9.2-0.4-11.9-1.6-21.3-6.7-27.9-11.8l0.4-0.4q0 0 0 0c0.1 0.2 0.1 0.3 0 0.4q-0.1 0-0.1 0.1c-16.5 3.7-24.5 5.5-26.3 5.9z"/>
							</g>
						</g>
					</g>
				</g>
			</g>
			<g id="&lt;Group&gt;">
				<g id="&lt;Group&gt;">
					<g id="&lt;Group&gt;">
						<g id="&lt;Group&gt;">
							<g id="&lt;Group&gt;">
								<g id="&lt;Group&gt;">
									<g id="&lt;Group&gt;">
										<path id="&lt;Path&gt;" class="s6" d="m840.2 227.7c0 2.8-2.2 5-5 5-2.8 0-5-2.2-5-5 0-2.7 2.2-5 5-5 2.8 0 5 2.3 5 5z"/>
									</g>
								</g>
							</g>
						</g>
					</g>
					<g id="&lt;Group&gt;">
						<g id="&lt;Group&gt;">
							<g id="&lt;Group&gt;">
								<g id="&lt;Group&gt;">
									<g id="&lt;Group&gt;">
										<path id="&lt;Path&gt;" class="s6" d="m860.3 227.7c0 2.8-2.3 5-5 5-2.8 0-5.1-2.2-5.1-5 0-2.7 2.3-5 5.1-5 2.7 0 5 2.3 5 5z"/>
									</g>
								</g>
							</g>
						</g>
					</g>
					<g id="&lt;Group&gt;">
						<g id="&lt;Group&gt;">
							<g id="&lt;Group&gt;">
								<g id="&lt;Group&gt;">
									<g id="&lt;Group&gt;">
										<path id="&lt;Path&gt;" class="s6" d="m880.3 225.2c1.4 2.4 0.6 5.5-1.8 6.9-2.4 1.4-5.5 0.5-6.9-1.9-1.4-2.4-0.6-5.4 1.8-6.8 2.4-1.4 5.5-0.6 6.9 1.8z"/>
									</g>
								</g>
							</g>
						</g>
					</g>
				</g>
			</g>
		</g>
	</g>
</svg>